<svg width="50" height="50" viewBox="0 0 50 50" fill="none" xmlns="http://www.w3.org/2000/svg">
<rect width="50" height="50" fill="#1E1E1E"/>
<g clip-path="url(#clip0_0_1)">
<rect width="1440" height="1020" transform="translate(-555 -161)" fill="white"/>
<rect x="-21.5" y="-10.5" width="93" height="129" rx="15.5" stroke="#777777" stroke-opacity="0.25"/>
<path d="M13.5417 48.4375C20.1576 48.4375 25.5208 43.0742 25.5208 36.4583C25.5208 29.8424 20.1576 24.4792 13.5417 24.4792C6.92576 24.4792 1.5625 29.8424 1.5625 36.4583C1.5625 43.0742 6.92576 48.4375 13.5417 48.4375Z" stroke="#281A3B" stroke-linecap="round" stroke-linejoin="round"/>
<path d="M13.5417 48.4375C20.1576 48.4375 25.5208 43.0742 25.5208 36.4583C25.5208 29.8424 20.1576 24.4792 13.5417 24.4792C6.92576 24.4792 1.5625 29.8424 1.5625 36.4583C1.5625 43.0742 6.92576 48.4375 13.5417 48.4375Z" fill="#FF6B00"/>
<path d="M13.541 24.4792C12.7542 24.4787 11.9691 24.5555 11.1973 24.7083C13.9137 25.2506 16.3583 26.7175 18.1149 28.8594C19.8714 31.0013 20.8314 33.6857 20.8314 36.4557C20.8314 39.2258 19.8714 41.9102 18.1149 44.0521C16.3583 46.1939 13.9137 47.6609 11.1973 48.2031C12.8382 48.5326 14.5299 48.5145 16.1634 48.1501C17.7969 47.7857 19.3359 47.0831 20.6812 46.0875C22.0265 45.0919 23.1483 43.8255 23.9742 42.3698C24.8001 40.9142 25.3118 39.3016 25.4764 37.636C25.6409 35.9705 25.4546 34.289 24.9295 32.6998C24.4044 31.1107 23.5522 29.6492 22.4276 28.4097C21.3031 27.1701 19.9314 26.1799 18.4008 25.5029C16.8701 24.8259 15.2147 24.4772 13.541 24.4792Z" fill="#E05E00"/>
<path d="M13.5417 48.4375C20.1576 48.4375 25.5208 43.0742 25.5208 36.4583C25.5208 29.8424 20.1576 24.4792 13.5417 24.4792C6.92576 24.4792 1.5625 29.8424 1.5625 36.4583C1.5625 43.0742 6.92576 48.4375 13.5417 48.4375Z" stroke="#281A3B" stroke-linecap="round" stroke-linejoin="round"/>
<path d="M25.5208 36.4583H1.5625" stroke="#281A3B" stroke-linecap="round" stroke-linejoin="round"/>
<path d="M48.4382 10.9375V25H28.6465V10.9375C28.6465 8.31296 29.6891 5.79592 31.5449 3.94009C33.4007 2.08426 35.9178 1.04167 38.5423 1.04167C41.1669 1.04167 43.6839 2.08426 45.5397 3.94009C47.3956 5.79592 48.4382 8.31296 48.4382 10.9375Z" fill="#61C4F2"/>
<path d="M38.5423 1.04167C37.8419 1.04238 37.1435 1.11745 36.459 1.26563C38.6706 1.7419 40.6522 2.96158 42.0738 4.72147C43.4954 6.48135 44.271 8.67519 44.2715 10.9375V25H48.4382V10.9375C48.4382 8.31296 47.3956 5.79592 45.5397 3.94009C43.6839 2.08426 41.1669 1.04167 38.5423 1.04167Z" fill="#75C9C9"/>
<path d="M48.4382 10.9375V25H28.6465V10.9375C28.6465 8.31296 29.6891 5.79592 31.5449 3.94009C33.4007 2.08426 35.9178 1.04167 38.5423 1.04167C41.1669 1.04167 43.6839 2.08426 45.5397 3.94009C47.3956 5.79592 48.4382 8.31296 48.4382 10.9375Z" stroke="#281A3B" stroke-linecap="round" stroke-linejoin="round"/>
<path d="M48.4382 25H28.6465" stroke="#281A3B" stroke-linecap="round" stroke-linejoin="round"/>
<path d="M48.4382 25V39.0625C48.4382 41.687 47.3956 44.2041 45.5397 46.0599C43.6839 47.9157 41.1669 48.9583 38.5423 48.9583C35.9178 48.9583 33.4007 47.9157 31.5449 46.0599C29.6891 44.2041 28.6465 41.687 28.6465 39.0625V25H48.4382Z" fill="#EAEAEA"/>
<path d="M44.2715 25V39.0625C44.271 41.3248 43.4954 43.5186 42.0738 45.2785C40.6522 47.0384 38.6706 48.2581 36.459 48.7344C37.9021 49.0452 39.3965 49.0291 40.8326 48.6875C42.2688 48.3458 43.6103 47.6872 44.7588 46.7598C45.9074 45.8325 46.834 44.6599 47.4706 43.328C48.1072 41.9962 48.4378 40.5387 48.4382 39.0625V25H44.2715Z" fill="#BACECE"/>
<path d="M48.4382 25V39.0625C48.4382 41.687 47.3956 44.2041 45.5397 46.0599C43.6839 47.9157 41.1669 48.9583 38.5423 48.9583C35.9178 48.9583 33.4007 47.9157 31.5449 46.0599C29.6891 44.2041 28.6465 41.687 28.6465 39.0625V25H48.4382Z" stroke="#281A3B" stroke-linecap="round" stroke-linejoin="round"/>
<path d="M48.4382 25H28.6465" stroke="#281A3B" stroke-linecap="round" stroke-linejoin="round"/>
<path d="M48.4382 10.9375C48.4382 5.47218 44.0076 1.04167 38.5423 1.04167C33.077 1.04167 28.6465 5.47218 28.6465 10.9375V39.0625C28.6465 44.5278 33.077 48.9583 38.5423 48.9583C44.0076 48.9583 48.4382 44.5278 48.4382 39.0625V10.9375Z" stroke="#281A3B" stroke-linecap="round" stroke-linejoin="round"/>
</g>
<defs>
<clipPath id="clip0_0_1">
<rect width="1440" height="1020" fill="white" transform="translate(-555 -161)"/>
</clipPath>
</defs>
</svg>
