<svg width="50" height="50" viewBox="0 0 50 50" fill="none" xmlns="http://www.w3.org/2000/svg">
<g id="call_doctor_coronavirus_smartphone_icon_142163 3" clip-path="url(#clip0_44_74)">
<g id="Group">
<path id="Vector" d="M21.2718 0.0801811C17.64 0.593529 13.2588 2.51858 13.0571 3.69927C12.9562 4.25112 11.9618 15.6731 11.9618 16.1992C11.9618 16.4816 11.8176 16.7383 11.5294 17.0206C10.9529 17.5596 10.7512 18.2783 10.852 19.459C10.9529 20.7038 11.2844 21.538 11.9329 22.1284C12.3653 22.5262 12.5094 22.8214 12.8265 23.9508C13.7776 27.2362 15.5791 29.8671 18.13 31.6766C21.8915 34.346 26.5033 34.654 30.5098 32.5365C31.6483 31.9205 33.5507 30.2906 34.4298 29.1484C35.7269 27.4928 36.9519 24.8491 37.2689 23.0267C37.341 22.6674 37.4707 22.4749 37.7733 22.3209C38.3066 22.0385 38.8542 21.1145 39.0416 20.1777C39.3442 18.689 39.1713 17.8034 38.4219 17.0463L37.9607 16.5714L37.4131 10.2829C37.1248 6.81785 36.8366 3.82761 36.7933 3.6351C36.6204 2.76241 33.3633 1.11971 30.481 0.452358C28.8236 0.0673485 28.6218 0.0416832 25.4368 0.00318146C23.6209 -0.00965118 21.7474 0.0160141 21.2718 0.0801811ZM28.1607 1.76139C29.8036 1.9539 31.5763 2.44157 32.9886 3.09609C35.1504 4.09711 34.9486 3.68644 35.2945 7.78037C35.4675 9.71825 35.626 11.5278 35.6692 11.7845L35.7413 12.2721H33.248H30.7404L30.3945 11.6048C29.8901 10.6423 28.7515 9.65408 27.5698 9.15357C26.6474 8.76856 26.5033 8.74289 24.9324 8.74289C23.3615 8.74289 23.2174 8.76856 22.295 9.15357C21.1133 9.65408 19.9747 10.6423 19.4703 11.6048L19.1244 12.2721H16.6168H14.1091L14.1812 11.8486C14.2244 11.6305 14.3974 9.82092 14.5703 7.84454C14.9162 3.64794 14.6856 4.08428 17.078 3.01909C20.0324 1.71006 23.9236 1.27371 28.1607 1.76139ZM26.4601 10.5653C27.4401 10.8604 28.5498 11.8743 28.8957 12.7727C29.2415 13.6967 29.1551 14.9544 28.6795 15.7886C27.9157 17.1233 26.4312 17.8548 24.673 17.7649C21.805 17.6238 20.0468 15.1854 20.998 12.7085C21.3006 11.9 22.468 10.8476 23.3471 10.5653C24.2118 10.2958 25.5809 10.2958 26.4601 10.5653ZM18.8794 14.4282C18.8794 14.7619 18.9371 15.2239 19.0091 15.4549L19.1533 15.8656H16.4727H13.7921L13.8929 15.2752C13.9362 14.9415 13.9794 14.4795 13.9794 14.2485V13.8122H16.4294H18.8794V14.4282ZM35.8854 14.2485C35.8854 14.4795 35.9286 14.9415 35.9719 15.2752L36.0728 15.8656H33.3922H30.7116L30.8557 15.4549C30.9277 15.2239 30.9854 14.7619 30.9854 14.4282V13.8122H33.4354H35.8854V14.2485ZM20.6809 17.996C21.0556 18.3296 21.805 18.766 22.3239 18.997C23.2174 19.3692 23.3759 19.3948 24.9324 19.3948C26.4889 19.3948 26.6474 19.3692 27.5409 18.997C28.0598 18.766 28.8092 18.3296 29.1839 17.996L29.8901 17.4056H32.7004C35.3089 17.4056 35.5395 17.4184 35.698 17.6494C35.7845 17.7778 36.1016 17.9318 36.3754 17.9703C37.1248 18.0986 37.3842 18.5093 37.2689 19.4077C37.1392 20.3702 36.9086 20.8065 36.3178 21.153C35.7845 21.4739 35.698 21.6535 35.1648 23.5401C34.473 26.0811 33.3633 27.865 31.4177 29.5976C29.991 30.8681 28.9389 31.4713 27.2383 31.9846C26.0421 32.344 23.8659 32.3183 22.5545 31.9205C20.5512 31.3301 18.6633 30.0852 17.2653 28.4554C15.9538 26.9025 14.7144 24.2844 14.3397 22.2182C14.2676 21.846 14.0803 21.5637 13.6624 21.2172C13.0282 20.6782 12.6823 19.9082 12.6823 19.0483C12.6823 18.3425 12.8841 18.073 13.4894 17.9703C13.7632 17.9318 14.0803 17.7778 14.1668 17.6494C14.3253 17.4184 14.5559 17.4056 17.1644 17.4056H19.9747L20.6809 17.996Z" fill="black"/>
<path id="Vector_2" d="M17.8995 20.6397C17.6689 20.845 17.6689 21.6664 17.8995 21.8717C18.1445 22.0899 21.9204 22.0899 22.1654 21.8717C22.2663 21.7819 22.3383 21.5124 22.3383 21.2557C22.3383 20.999 22.2663 20.7295 22.1654 20.6397C22.0501 20.537 21.3583 20.4857 20.0325 20.4857C18.7066 20.4857 18.0148 20.537 17.8995 20.6397Z" fill="black"/>
<path id="Vector_3" d="M27.6996 20.6397C27.469 20.845 27.469 21.6664 27.6996 21.8717C27.9446 22.0899 31.7205 22.0899 31.9655 21.8717C32.0663 21.7819 32.1384 21.5124 32.1384 21.2557C32.1384 20.999 32.0663 20.7295 31.9655 20.6397C31.8502 20.537 31.1584 20.4857 29.8325 20.4857C28.5066 20.4857 27.8148 20.537 27.6996 20.6397Z" fill="black"/>
<path id="Vector_4" d="M21.3584 26.7999C21.2575 26.8897 21.1854 27.172 21.1854 27.4416C21.1854 27.8779 21.2575 27.9806 21.8772 28.3784C22.7996 28.9816 23.7796 29.2511 25.0046 29.2511C26.8349 29.2254 28.7228 28.3142 28.7228 27.4416C28.7228 27.2234 28.6508 26.9539 28.5355 26.8512C28.2905 26.5817 27.3249 26.5817 27.0799 26.8512C26.2007 27.8009 23.6643 27.8009 22.7851 26.8512C22.5545 26.6074 21.6034 26.5817 21.3584 26.7999Z" fill="black"/>
<path id="Vector_5" d="M12.5383 31.9847C11.4862 32.3953 10.8233 33.2809 10.708 34.4616C10.6071 35.4241 10.953 37.67 11.76 41.3019C12.6248 45.2675 12.495 44.8953 12.9851 44.8183C13.2156 44.767 13.6048 44.7028 13.8353 44.6643C14.3974 44.5745 14.3974 44.4333 13.8353 41.9949C13.0139 38.3887 12.6536 36.3353 12.6248 35.2187C12.6103 34.2177 12.6392 34.0894 12.9562 33.7814C13.3598 33.3964 14.2389 33.3322 14.8442 33.6402C15.3054 33.884 16.1989 33.884 16.4151 33.653C16.5159 33.5504 16.5736 33.2424 16.5448 32.9729C16.5015 32.5237 16.4439 32.4595 15.7233 32.1258C15.0892 31.8563 14.7433 31.7793 13.9939 31.7793C13.4751 31.7922 12.8121 31.882 12.5383 31.9847Z" fill="black"/>
<path id="Vector_6" d="M34.1416 32.1259C33.421 32.4595 33.3634 32.5237 33.3201 32.9729C33.2913 33.2424 33.3489 33.5504 33.4498 33.6531C33.666 33.8841 34.5595 33.8841 35.0207 33.6402C35.626 33.3322 36.5051 33.3964 36.9087 33.7814C37.2257 34.0766 37.2546 34.2177 37.2401 35.2188C37.2257 36.2326 36.3178 41.1736 36.0295 41.8538C35.9575 42.0206 35.6837 42.1746 35.2369 42.2773C32.5131 42.919 30.2936 45.768 30.7548 48.0011C30.8845 48.5786 31.4898 49.2331 31.9078 49.2331C32.1672 49.2331 32.2536 49.1176 32.3978 48.5529C32.4842 48.1807 32.5707 47.6289 32.5707 47.3337C32.5707 46.23 33.7669 44.7413 35.1793 44.0868C36.0872 43.6633 37.4419 43.6633 38.3787 44.0996C39.8775 44.7798 41.506 46.9744 41.0305 47.6546C40.9584 47.7444 41.0016 48.1422 41.1025 48.5273C41.2899 49.2844 41.4484 49.3614 42.1258 49.0919C43.2211 48.6428 43.2931 46.9102 42.2555 45.2033C41.6646 44.2151 40.2666 43.0216 39.1857 42.5596C38.6813 42.3543 38.1769 42.1746 38.076 42.1746C37.9607 42.1746 37.9175 42.0848 37.9607 41.9436C38.0472 41.6998 38.6525 38.7609 38.9263 37.2978C39.0272 36.7716 39.1137 35.7578 39.1137 35.0519C39.1281 33.6659 38.9119 33.0755 38.1625 32.4595C37.2401 31.6895 35.4531 31.5483 34.1416 32.1259Z" fill="black"/>
<path id="Vector_7" d="M15.5936 35.0134C15.4927 35.1032 15.4207 35.3856 15.4207 35.6422C15.4207 36.1171 15.4783 36.1556 19.946 39.3383C23.7651 42.0591 24.5433 42.5596 24.9325 42.5596C25.3216 42.5596 26.0998 42.0591 29.919 39.3383C34.3866 36.1556 34.4443 36.1171 34.4443 35.6422C34.4443 35.0519 34.2425 34.8594 33.5796 34.8594C33.1328 34.8722 32.5707 35.2316 29.0398 37.747C26.8204 39.3383 24.9757 40.6345 24.9325 40.6345C24.8892 40.6345 23.0445 39.3383 20.8251 37.747C17.2942 35.2316 16.7321 34.8722 16.2854 34.8594C15.9971 34.8594 15.6945 34.9236 15.5936 35.0134Z" fill="black"/>
<path id="Vector_8" d="M5.8512 38.9918C4.88561 39.8645 3.99208 40.7243 3.87678 40.9168C3.76149 41.0965 3.2859 41.751 2.82472 42.367C1.28265 44.3947 0 47.4106 0 49.0405C0 49.3999 0.0720592 49.7592 0.172942 49.849C0.403531 50.0544 1.36912 50.0415 1.57089 49.8362C1.65736 49.7335 1.8303 49.156 1.9456 48.54C2.23383 47.1155 2.59413 46.1529 3.38678 44.7541C4.33796 43.0729 5.34679 41.8793 7.3068 40.1468C8.84886 38.7736 9.07945 38.5041 9.07945 38.1447C9.07945 37.6057 8.84886 37.4261 8.18592 37.4261C7.66709 37.4261 7.50856 37.5416 5.8512 38.9918Z" fill="black"/>
<path id="Vector_9" d="M41.1025 37.5801C41.0016 37.67 40.9296 37.9266 40.9296 38.1448C40.9296 38.5041 41.1746 38.7736 42.7743 40.211C45.9449 43.0344 47.6455 45.7423 48.1211 48.7582C48.1931 49.2459 48.3372 49.7207 48.4381 49.8234C48.6543 50.0673 49.6343 50.0544 49.8649 49.8106C50.1676 49.4897 49.937 47.7829 49.4181 46.3327C48.3805 43.4451 46.4925 40.8912 43.5669 38.4528C42.486 37.5545 42.2555 37.4261 41.8087 37.4261C41.506 37.4261 41.2034 37.4903 41.1025 37.5801Z" fill="black"/>
<g id="Ellipse 9">
<mask id="path-10-inside-1_44_74" fill="white">
<path d="M16 46.5C16 47.8807 14.8807 49 13.5 49C12.1193 49 11 47.8807 11 46.5C11 45.1193 12.1193 44 13.5 44C14.8807 44 16 45.1193 16 46.5ZM11.9175 46.5C11.9175 47.374 12.626 48.0825 13.5 48.0825C14.374 48.0825 15.0825 47.374 15.0825 46.5C15.0825 45.626 14.374 44.9175 13.5 44.9175C12.626 44.9175 11.9175 45.626 11.9175 46.5Z"/>
</mask>
<path d="M16 46.5C16 47.8807 14.8807 49 13.5 49C12.1193 49 11 47.8807 11 46.5C11 45.1193 12.1193 44 13.5 44C14.8807 44 16 45.1193 16 46.5ZM11.9175 46.5C11.9175 47.374 12.626 48.0825 13.5 48.0825C14.374 48.0825 15.0825 47.374 15.0825 46.5C15.0825 45.626 14.374 44.9175 13.5 44.9175C12.626 44.9175 11.9175 45.626 11.9175 46.5Z" fill="#FF6B00" stroke="black" stroke-width="0.2" mask="url(#path-10-inside-1_44_74)"/>
</g>
<circle id="Ellipse 10" cx="25" cy="14" r="3" fill="#61C4F2"/>
</g>
</g>
<defs>
<clipPath id="clip0_44_74">
<rect width="50" height="50" fill="white"/>
</clipPath>
</defs>
</svg>
