<svg width="100" height="100" viewBox="0 0 100 100" fill="none" xmlns="http://www.w3.org/2000/svg">
<rect width="100" height="100" fill="#1E1E1E"/>
<g clip-path="url(#clip0_0_1)">
<rect width="1440" height="3680" transform="translate(-961 -540)" fill="white"/>
<g clip-path="url(#clip1_0_1)">
<path d="M4.10156 17.0288C4.10156 14.9861 5.75754 13.3301 7.80029 13.3301L72.0337 13.3301C74.0764 13.3301 75.7324 14.9861 75.7324 17.0288V25.9277L4.10156 25.9277L4.10156 17.0288Z" fill="#FF6B00"/>
<circle cx="76.2451" cy="75.0732" r="20.1416" fill="#58FFB1"/>
<path d="M8.39844 32.793C8.30078 33.0078 8.20312 33.6328 8.20312 34.1797C8.20312 35.5274 8.4375 35.9375 9.25781 35.9375C10.1953 35.9375 10.5469 35.4492 10.5469 34.1406C10.5469 33.3594 10.4492 32.9883 10.1953 32.7539C9.6875 32.2852 8.65234 32.3242 8.39844 32.793Z" fill="black"/>
<path d="M29.4727 35.2344C27.1485 35.8789 25.2149 37.5391 24.1602 39.8047C22.793 42.7539 23.3594 47.3828 25.8789 53.3789C27.2266 56.6211 27.5586 58.3594 27.6954 63.2227L27.8321 67.5391L28.418 68.3984C29.1602 69.4727 30.4102 70.1172 31.7188 70.1172C33.6329 70.1172 35.2344 68.8672 36.3868 66.4063C36.9532 65.2539 37.0118 64.9219 37.1094 62.5586C37.1875 60.3711 37.2657 59.9024 37.6172 59.4336C38.7696 57.8711 40.8789 57.9102 41.9336 59.5117C42.2071 59.9024 42.3047 60.625 42.4024 62.4805C42.5586 65.5859 42.9493 66.7383 44.4532 68.3594C45.7618 69.7656 46.7774 70.2149 48.3399 70.0781C49.7071 69.9609 50.8594 69.1992 51.5039 67.9883C51.9141 67.1875 51.9532 66.8945 51.9532 64.1797C51.9532 59.1602 52.3047 57.1875 54.043 52.8516C55.7032 48.6914 56.1133 46.9141 56.1329 43.75L56.1524 41.0938L55.4297 39.6289C54.5313 37.8125 53.2422 36.543 51.4063 35.6836C50.1954 35.1172 49.9414 35.0586 48.1446 35.0586C46.5625 35.0781 45.8399 35.1758 44.336 35.6445C42.9297 36.0742 41.9727 36.2109 40.3321 36.2891C38.3594 36.3672 37.9688 36.3086 35.4493 35.6641C32.5196 34.9219 31.0547 34.8047 29.4727 35.2344ZM35.0586 38.0078C38.9063 38.9844 40.8399 38.9844 44.6289 37.9883C46.7774 37.4219 47.6172 37.2852 48.5352 37.3633C50.5274 37.5 52.2071 38.6133 53.2422 40.4688C53.7696 41.4258 53.8086 41.6406 53.8086 43.5547C53.7891 46.1914 53.3985 47.9688 51.9532 51.6602C50 56.6211 49.6094 58.6719 49.6094 63.8281C49.6094 66.7383 49.5899 66.8359 49.1211 67.2852C48.7891 67.6367 48.4375 67.7734 47.9297 67.7734C47.3047 67.7734 47.0508 67.6172 46.2891 66.8359C45.0977 65.5859 44.7266 64.5117 44.7266 62.207C44.7266 59.9609 44.336 58.6328 43.418 57.5977C42.3243 56.3867 41.3672 55.9766 39.7461 55.9766C38.1446 55.9766 37.1289 56.4063 36.1329 57.5391C35.1172 58.6914 34.9024 59.4141 34.7657 62.207C34.6289 65.0391 34.3555 65.8203 33.1055 67.0899C32.2266 67.9492 31.2891 68.0274 30.5664 67.2852C30.0977 66.8359 30.0782 66.7383 30.0782 63.8281C30.0782 58.9258 29.5118 55.7813 27.9688 52.1094C26.1329 47.7734 25.3711 43.75 25.9766 41.6016C26.4649 39.8242 27.9493 38.3008 29.7461 37.6758C31.1914 37.168 31.9727 37.2266 35.0586 38.0078Z" fill="black"/>
<path d="M8.53516 38.6328C8.24219 38.9649 8.20313 40.0977 8.20313 51.0156C8.20312 62.4024 8.22266 63.0469 8.55469 63.3399C9.00391 63.75 9.55078 63.7695 10.1172 63.3594L10.5469 63.0664L10.5469 50.9766L10.5469 38.8867L10.1172 38.5938C9.53125 38.1836 8.92578 38.2031 8.53516 38.6328Z" fill="black"/>
<path d="M83.0468 71.0742C80.6054 73.4375 77.9492 76.0352 77.1484 76.8555C76.3476 77.6758 75.0976 78.8867 74.3749 79.5313L73.0468 80.7031L69.3359 77.1289C67.3046 75.1563 65.4882 73.4766 65.3124 73.3789C64.5312 72.9297 63.457 73.8672 63.8085 74.707C63.8867 74.9219 65.9179 77.0117 68.2812 79.3359C71.3281 82.3242 72.7343 83.5938 73.0468 83.5938C73.5156 83.5938 73.9452 83.2031 83.4179 73.9258C86.3867 71.0156 88.8671 68.4766 88.9452 68.2422C89.1015 67.7344 88.4179 66.7969 87.8515 66.7969C87.6171 66.7969 85.8202 68.3984 83.0468 71.0742Z" fill="black"/>
<path d="M17.2852 3.57423C16.1328 4.04298 15.4687 4.4922 14.6875 5.37111C13.6133 6.60158 13.2812 7.6758 13.2812 9.98048V11.875L10.6055 11.9531C8.16406 12.0117 7.79297 12.0703 6.77734 12.5391C5.21484 13.2617 3.65234 14.8242 2.87109 16.3867L2.24609 17.6758L2.24609 47.0703L2.24609 76.4649L2.77344 77.5977C3.51562 79.1602 5.05859 80.7227 6.62109 81.5039L7.91016 82.1289L31.9531 82.1875L56.0156 82.2266L56.1523 82.7734C56.3476 83.5547 57.7148 86.2109 58.6328 87.5781C59.6875 89.1211 62.4609 91.8945 64.043 92.9492C67.9101 95.5664 71.7187 96.7188 76.3672 96.7188C80.1172 96.7188 82.8125 96.1133 86.0156 94.5117C92.0117 91.5234 96.3086 85.8399 97.5586 79.2383C97.9297 77.2266 97.9297 73.1641 97.5586 71.1524C95.918 62.4609 89.1015 55.6445 80.4101 54.0039C79.5703 53.8477 78.5742 53.7109 78.2031 53.7109H77.539L77.5 35.6836L77.4414 17.6758L76.8359 16.4063C76.0742 14.7852 74.668 13.3789 73.0469 12.6172C71.8555 12.0508 71.6211 12.0117 69.1015 11.9531L66.4062 11.875V9.98048C66.4062 7.42189 66.0742 6.46486 64.668 5.05861C63.3203 3.71095 62.2656 3.32033 60.0586 3.32033C57.8516 3.32033 56.7969 3.71095 55.4492 5.05861C54.043 6.46486 53.7109 7.42188 53.7109 10V11.9141H39.8437H25.9766V10C25.9766 7.42188 25.6445 6.46486 24.2383 5.05861C22.8516 3.69142 21.8555 3.32033 19.5508 3.33986C18.6328 3.33986 17.6172 3.45705 17.2852 3.57423ZM20.8398 5.89845C22.0312 6.19141 23.1055 7.26563 23.3984 8.45704C23.6914 9.60938 23.6914 14.0235 23.3984 15.1758C22.5 18.8086 16.7578 18.8086 15.8594 15.1758C15.5664 14.0235 15.5664 9.60938 15.8594 8.45704C16.25 6.91407 17.7539 5.76173 19.4922 5.68361C19.7461 5.66408 20.3516 5.76173 20.8398 5.89845ZM61.2695 5.89845C61.8555 6.03516 62.4219 6.3672 62.8906 6.83595C63.3594 7.3047 63.6914 7.8711 63.8281 8.45704C64.1211 9.60938 64.1211 14.0235 63.8281 15.1758C62.9297 18.8086 57.1875 18.8086 56.2891 15.1758C55.9961 14.0235 55.9961 9.60938 56.2891 8.45704C56.6797 6.91407 58.1836 5.76173 59.9219 5.68361C60.1758 5.66408 60.7812 5.76173 61.2695 5.89845ZM13.3789 15.0781C13.7109 17.0313 15.0195 18.8086 16.7578 19.668C17.7539 20.1563 18.0859 20.2149 19.7266 20.2149C21.3477 20.1953 21.6992 20.1367 22.5781 19.6875C24.4141 18.7305 25.9766 16.4844 25.9766 14.8047V14.2578H39.8242H53.6523L53.8867 15.4102C54.6484 19.2969 59.0039 21.3867 62.8516 19.7266C64.707 18.9258 66.4062 16.5234 66.4062 14.707V14.2188L68.8086 14.2969C70.7812 14.3555 71.3281 14.4336 71.9922 14.7852C73.2226 15.4297 73.8867 16.0742 74.5117 17.2266C75.0976 18.2617 75.0976 18.2813 75.1562 22.0117L75.2344 25.7813L57.5488 25.7813H39.8633H4.49219V22.5C4.49219 18.2617 4.6875 17.5586 6.23047 15.9961C7.63672 14.5899 8.53515 14.2969 11.2695 14.2774L13.2422 14.2578L13.3789 15.0781ZM75.1953 40.8789V53.6328L73.4375 53.8672C69.3945 54.4141 64.9023 56.4844 62.0703 59.1406C60.9961 60.1367 60.8398 60.8984 61.5625 61.4063C62.2461 61.8945 62.5781 61.7969 63.8086 60.7813C66.0156 58.9453 67.8125 57.9102 70.2148 57.0899C80.332 53.6524 91.3672 59.2383 94.5898 69.4336C97.0312 77.1875 94.3164 85.6445 87.8125 90.5664C86.2695 91.7188 83.1445 93.2422 81.1523 93.7891C78.8281 94.4141 74.0234 94.4141 71.6797 93.7891C60.8008 90.8399 54.8047 79.8633 58.2422 69.1602C58.9062 67.1094 58.8281 66.5234 57.8906 66.2891C56.8555 66.0352 56.3281 66.8359 55.5078 69.9219C55.0976 71.5039 55.0195 72.2266 55 74.8047C54.9805 76.4649 55.0586 78.3008 55.1367 78.8672L55.293 79.8828L32.0898 79.8438C8.96484 79.7852 8.88672 79.7852 7.98828 79.375C6.69922 78.7695 5.76172 77.8516 5.13672 76.6016L4.58984 75.4883L4.53125 51.7969L4.49219 28.125H22.168H39.8437L75.1953 28.125L75.1953 40.8789Z" fill="black"/>
</g>
</g>
<defs>
<clipPath id="clip0_0_1">
<rect width="1440" height="3680" fill="white" transform="translate(-961 -540)"/>
</clipPath>
<clipPath id="clip1_0_1">
<rect width="1240" height="141" fill="white" transform="translate(-861 -1)"/>
</clipPath>
</defs>
</svg>
