<svg width="50" height="50" viewBox="0 0 50 50" fill="none" xmlns="http://www.w3.org/2000/svg">
<rect width="50" height="50" fill="#1E1E1E"/>
<g id="Landing Page" clip-path="url(#clip0_0_1)">
<rect width="1440" height="3680" transform="translate(-219 -1680)" fill="white"/>
<g id="Group 1">
<g id="Delivery">
<g id="express_shipping_delivery_service_hour_icon_187260 1" clip-path="url(#clip1_0_1)">
<g id="Group">
<g id="Group_2">
<g id="Group_3">
<path id="Vector" d="M41.129 16.9355C41.129 18.9194 40.7661 20.8226 40.1129 22.5807H38.7097C38.7097 21.6532 38.1855 20.8468 37.4194 20.4436C37.7339 19.3226 37.9032 18.1532 37.9032 16.9355C37.9032 9.80646 32.129 4.03226 25 4.03226C17.871 4.03226 12.0968 9.80646 12.0968 16.9355C12.0968 18.6452 12.4274 20.2823 13.0323 21.7742H10.4839V23.9758C9.45162 21.8468 8.87097 19.4597 8.87097 16.9355C8.87097 8.0242 16.0887 0.806458 25 0.806458C33.9113 0.806458 41.129 8.0242 41.129 16.9355Z" fill="#CCD1D9"/>
</g>
<g id="Group_4">
<path id="Vector_2" d="M36.2903 27.4194V28.4516C33.379 31.3065 29.3951 33.0645 25 33.0645H21.7742V29.4355C22.8064 29.6936 23.8871 29.8387 25 29.8387C28.8548 29.8387 32.3145 28.1452 34.6774 25.4678V25.8065C34.6774 26.6936 35.4032 27.4194 36.2903 27.4194Z" fill="#CCD1D9"/>
</g>
<g id="Group_5">
<path id="Vector_3" d="M25 4.03223C32.1291 4.03223 37.9033 9.80642 37.9033 16.9355C37.9033 18.1532 37.7339 19.3225 37.4194 20.4435C37.0807 20.2661 36.7016 20.1613 36.2903 20.1613C35.5726 20.1613 34.9274 20.4677 34.492 20.9677H29.8387C29.3952 20.9677 29.0323 21.3306 29.0323 21.7742V23.3871C29.0323 23.8306 29.3952 24.1935 29.8387 24.1935H34.492C34.5484 24.258 34.6129 24.3225 34.6774 24.379V25.4677C32.3145 28.1451 28.8549 29.8387 25 29.8387C23.8871 29.8387 22.8065 29.6935 21.7742 29.4355V21.7742H18.5484H13.7097H13.0323C12.4274 20.2822 12.0968 18.6451 12.0968 16.9355C12.0968 9.80642 17.871 4.03223 25 4.03223Z" fill="#69D6F4"/>
</g>
<g id="Group_6">
<path id="Vector_4" d="M34.6774 25.4678V24.3791C35.1048 24.7662 35.6693 25 36.2903 25C37.629 25 38.7096 23.9194 38.7096 22.5807H40.1129H41.9354C42.6048 22.5807 43.2096 22.8549 43.6451 23.2904C44.0806 23.7258 44.3548 24.3307 44.3548 25C44.3548 26.3388 43.2741 27.4194 41.9354 27.4194H41.129H36.2903C35.4032 27.4194 34.6774 26.6936 34.6774 25.8065V25.4678Z" fill="#FF6B00"/>
</g>
<g id="Group_7">
<path id="Vector_5" d="M42.7419 36.2903C39.1774 36.2903 36.2903 39.1774 36.2903 42.7419V28.4516V27.4193H41.129C42.7258 30.2096 43.75 33.2741 44.1532 36.4435C43.7016 36.3467 43.2258 36.2903 42.7419 36.2903Z" fill="#FF6B00"/>
</g>
<g id="Group_8">
<path id="Vector_6" d="M29.9516 36.7259L31.4516 42.742H28.0887H28.0806C27.8468 42.0484 27.2903 41.5001 26.5968 41.2662L24.6371 37.2017C24.3629 36.6452 23.7984 36.2904 23.1855 36.2904H16.9355H9.67742C9.23387 36.2904 8.87097 35.9275 8.87097 35.4839V33.871C8.87097 33.4275 9.23387 33.0646 9.67742 33.0646H10.4839H21.7742H25H25.2581C27.4758 33.0646 29.4113 34.5726 29.9516 36.7259Z" fill="#FF6B00"/>
</g>
<g id="Group_9">
<path id="Vector_7" d="M28.0887 42.7419H31.4516H36.2903C36.2903 43.9194 36.6048 45.0242 37.1532 45.9677H25.8064C26.4758 45.9677 27.0806 45.6936 27.5161 45.2581C27.9516 44.8226 28.2258 44.2177 28.2258 43.5484C28.2258 43.2661 28.1774 42.9919 28.0806 42.7419H28.0887Z" fill="#CCD1D9"/>
</g>
<g id="Group_10">
<path id="Vector_8" d="M45.9677 42.7419H49.1935C49.1935 46.3065 46.3064 49.1936 42.7419 49.1936C40.3548 49.1936 38.2661 47.8952 37.1532 45.9677C36.6048 45.0242 36.2903 43.9194 36.2903 42.7419H39.5161C39.5161 44.5242 40.9596 45.9677 42.7419 45.9677C44.5242 45.9677 45.9677 44.5242 45.9677 42.7419Z" fill="#969FAA"/>
</g>
<g id="Group_11">
<path id="Vector_9" d="M23.1855 41.129H19.7258C19.1694 40.1613 18.129 39.5161 16.9355 39.5161C15.1532 39.5161 13.7097 40.9596 13.7097 42.7419C13.7097 44.5242 15.1532 45.9677 16.9355 45.9677H19.3549H22.5242C21.4113 47.8951 19.3226 49.1935 16.9355 49.1935C13.371 49.1935 10.4839 46.3064 10.4839 42.7419C10.4839 39.1774 13.371 36.2903 16.9355 36.2903C19.9436 36.2903 22.4678 38.3467 23.1855 41.129Z" fill="#969FAA"/>
</g>
<g id="Group_12">
<path id="Vector_10" d="M28.0807 42.7419C28.1775 42.9919 28.2259 43.2661 28.2259 43.5484C28.2259 44.2177 27.9517 44.8226 27.5162 45.2581C27.0807 45.6935 26.4759 45.9677 25.8065 45.9677H25.0001H22.5243H19.3549C18.0162 45.9677 16.9355 44.8871 16.9355 43.5484C16.9355 42.879 17.2097 42.2742 17.6452 41.8387C18.0807 41.4032 18.6855 41.129 19.3549 41.129H19.7259H23.1855H25.8065C26.0807 41.129 26.3549 41.1774 26.5968 41.2661C27.2904 41.5 27.8468 42.0484 28.0807 42.7419Z" fill="#AAB2BD"/>
</g>
<g id="Group_13">
<path id="Vector_11" d="M36.2903 42.7419C36.2903 39.1774 39.1774 36.2903 42.7419 36.2903C43.2258 36.2903 43.7016 36.3467 44.1532 36.4435C47.0403 37.0887 49.1935 39.6613 49.1935 42.7419H45.9677H39.5161H36.2903Z" fill="#AAB2BD"/>
</g>
<g id="Group_14">
<path id="Vector_12" d="M33.8709 22.5807C33.8709 23.2016 34.1048 23.7662 34.4919 24.1936H29.8387C29.3951 24.1936 29.0322 23.8307 29.0322 23.3871V21.7742C29.0322 21.3307 29.3951 20.9678 29.8387 20.9678H34.4919C34.1048 21.3952 33.8709 21.9597 33.8709 22.5807Z" fill="#CCD1D9"/>
</g>
<g id="Group_15">
<path id="Vector_13" d="M37.4194 20.4435C38.1855 20.8467 38.7097 21.6532 38.7097 22.5806C38.7097 23.9193 37.629 25 36.2903 25C35.6694 25 35.1048 24.7661 34.6774 24.379C34.6129 24.3225 34.5484 24.258 34.4919 24.1935C34.1048 23.7661 33.871 23.2016 33.871 22.5806C33.871 21.9596 34.1048 21.3951 34.4919 20.9677C34.9274 20.4677 35.5726 20.1613 36.2903 20.1613C36.7016 20.1613 37.0807 20.2661 37.4194 20.4435Z" fill="#AAB2BD"/>
</g>
<g id="Group_16">
<path id="Vector_14" d="M25 18.5484C25.8908 18.5484 26.6129 17.8263 26.6129 16.9355C26.6129 16.0448 25.8908 15.3226 25 15.3226C24.1092 15.3226 23.3871 16.0448 23.3871 16.9355C23.3871 17.8263 24.1092 18.5484 25 18.5484Z" fill="#FF826E"/>
</g>
<path id="Vector 2" d="M15.3065 28.3475V27.5H16.1532V28.3475H17V29.1525H16.1532V30H15.3065V29.1525H14.5V28.3475H15.3065Z" fill="#FF0000" stroke="black" stroke-width="0.16129"/>
</g>
<g id="Group_17">
<path id="Vector_15" d="M44.8726 35.804C44.4718 33.1347 43.6622 30.575 42.4492 28.1742C43.9831 27.9258 45.1613 26.6032 45.1613 25C45.1613 23.221 43.7146 21.7742 41.9355 21.7742H41.221C41.688 20.2097 41.9355 18.5887 41.9355 16.9355C41.9355 7.59758 34.3388 0 25.0001 0C15.6613 0 8.06458 7.59758 8.06458 16.9355C8.06458 17.7903 8.12909 18.6468 8.2549 19.4831L9.85006 19.2419C9.73554 18.4855 9.67748 17.7097 9.67748 16.9355C9.67748 8.48629 16.5509 1.6129 25.0001 1.6129C33.4492 1.6129 40.3226 8.48629 40.3226 16.9355C40.3226 18.5952 40.046 20.2169 39.5275 21.7742H39.4017C39.2283 21.1081 38.8484 20.5315 38.3331 20.1048C38.5783 19.0702 38.7097 18.0081 38.7097 16.9355C38.7097 9.37581 32.5597 3.22581 25.0001 3.22581C17.4404 3.22581 11.2904 9.37581 11.2904 16.9355C11.2904 18.3161 11.4984 19.6669 11.8993 20.9677H9.67748V32.2581C8.78796 32.2581 8.06458 32.9815 8.06458 33.871V35.4839C8.06458 36.3734 8.78796 37.0968 9.67748 37.0968H12.3839C10.7355 38.4282 9.67748 40.4629 9.67748 42.7419C9.67748 46.7444 12.9339 50 16.9355 50C19.3557 50 21.6105 48.7694 22.9525 46.7742H25.0001H25.8065H36.7113C38.0154 48.7177 40.2315 50 42.742 50C46.7436 50 50.0001 46.7444 50.0001 42.7419C50.0001 39.4806 47.838 36.7169 44.8726 35.804ZM48.3226 41.9355H37.1613C37.5549 39.2048 39.9041 37.0968 42.742 37.0968C45.5799 37.0968 47.9291 39.2048 48.3226 41.9355ZM45.013 43.5484C44.6791 44.4847 43.792 45.1613 42.742 45.1613C41.692 45.1613 40.8049 44.4847 40.471 43.5484H45.013ZM37.9033 22.5806C37.9033 23.4702 37.1799 24.1935 36.2904 24.1935C35.4009 24.1935 34.6775 23.4702 34.6775 22.5806C34.6775 21.6911 35.4009 20.9677 36.2904 20.9677C37.1799 20.9677 37.9033 21.6911 37.9033 22.5806ZM33.1791 23.3871H29.8388V21.7742H33.1791C33.1113 22.0339 33.0646 22.3008 33.0646 22.5806C33.0646 22.8605 33.1113 23.1274 33.1791 23.3871ZM42.742 35.4839C40.463 35.4839 38.4283 36.5419 37.0968 38.1903V28.2258H40.6484C41.8952 30.5081 42.7525 32.9492 43.196 35.5073C43.0452 35.4976 42.8952 35.4839 42.742 35.4839ZM39.4017 23.3871H41.9355C42.8251 23.3871 43.5484 24.1105 43.5484 25C43.5484 25.8895 42.8251 26.6129 41.9355 26.6129H36.2904C35.846 26.6129 35.4839 26.2516 35.4839 25.8065V25.6919C35.7436 25.7597 36.0105 25.8065 36.2904 25.8065C37.7888 25.8065 39.0412 24.775 39.4017 23.3871ZM12.9412 17.7419H16.1291V16.129H12.9444C13.1259 13.4008 14.2097 10.9218 15.9073 8.98306L18.1573 11.2331L19.2976 10.0927L17.0476 7.84274C18.9863 6.14516 21.4654 5.06048 24.1936 4.87984V8.06452H25.8065V4.87984C28.5347 5.06129 31.0138 6.14516 32.9525 7.84274L30.7025 10.0927L31.8428 11.2331L34.0928 8.98306C35.7904 10.9218 36.8751 13.4008 37.0557 16.129H33.871V17.7419H37.0694C37.0323 18.304 36.9573 18.8621 36.8436 19.4105C36.663 19.379 36.4799 19.3548 36.2904 19.3548C35.4799 19.3548 34.7468 19.6653 34.1791 20.1613H29.8388C28.9493 20.1613 28.2259 20.8847 28.2259 21.7742V23.3871C28.2259 24.2766 28.9493 25 29.8388 25H33.871V25.8065C33.871 26.8565 34.5476 27.7435 35.4839 28.0774V41.9355H32.0815L30.7315 36.5347C30.1017 34.0169 27.8493 32.2581 25.2541 32.2581H22.5807V20.9677H13.6057C13.238 19.9274 13.0138 18.8484 12.9412 17.7419ZM14.5162 22.5806H17.742V24.1935H14.5162V22.5806ZM11.2904 22.5806H12.9033V25.8065H19.3549V22.5806H20.9678V32.2581H11.2904V22.5806ZM9.67748 35.4839V33.871H22.5807H25.2541C27.1073 33.871 28.7162 35.1274 29.1662 36.925L30.4186 41.9355H28.5831C28.2589 41.3798 27.7799 40.9314 27.1976 40.6508L25.3597 36.8492C24.9581 36.0202 24.1041 35.4839 23.1823 35.4839H9.67748ZM23.7799 40.3226C23.3243 39.0298 22.5202 37.925 21.4936 37.0968H23.1823C23.4896 37.0968 23.7743 37.2758 23.9081 37.5516L25.2476 40.3226H23.7799ZM16.9355 48.3871C13.8226 48.3871 11.2904 45.854 11.2904 42.7419C11.2904 39.6298 13.8226 37.0968 16.9355 37.0968C19.1476 37.0968 21.1097 38.3839 22.0291 40.3226H20.1573C19.4017 39.3186 18.2073 38.7097 16.9355 38.7097C14.7122 38.7097 12.9033 40.5185 12.9033 42.7419C12.9033 44.9653 14.7122 46.7742 16.9355 46.7742H19.3549H20.8799C19.8372 47.7903 18.4243 48.3871 16.9355 48.3871ZM16.1291 43.5484C16.1291 44.1234 16.2928 44.6556 16.5573 45.1234C15.4033 44.9395 14.5162 43.9468 14.5162 42.7419C14.5162 41.4081 15.6017 40.3226 16.9355 40.3226C17.3291 40.3226 17.7057 40.4298 18.0452 40.6065C16.9186 41.1105 16.1291 42.2363 16.1291 43.5484ZM25.0001 45.1613H19.3549C18.4654 45.1613 17.742 44.4379 17.742 43.5484C17.742 42.6589 18.4654 41.9355 19.3549 41.9355H25.8065C26.696 41.9355 27.4194 42.6589 27.4194 43.5484C27.4194 44.4379 26.696 45.1613 25.8065 45.1613H25.0001ZM28.5839 45.1613C28.8613 44.6847 29.0323 44.1387 29.0323 43.5484H35.5315C35.5936 44.1089 35.7251 44.6468 35.9073 45.1613H28.5839ZM42.742 48.3871C39.9041 48.3871 37.5549 46.279 37.1613 43.5484H38.7912C39.1662 45.3863 40.7944 46.7742 42.742 46.7742C44.6896 46.7742 46.3178 45.3863 46.6928 43.5484H48.3226C47.9291 46.279 45.5799 48.3871 42.742 48.3871Z" fill="black"/>
<path id="Vector_16" d="M2.41935 25.8065H6.45161V24.1936H2.41935C1.975 24.1936 1.6129 23.8323 1.6129 23.3871C1.6129 22.942 1.975 22.5807 2.41935 22.5807H8.06452V20.9678H2.41935C1.08548 20.9678 0 22.0533 0 23.3871C0 24.721 1.08548 25.8065 2.41935 25.8065Z" fill="black"/>
<path id="Vector_17" d="M2.41935 35.4838H6.45161V33.8709H2.41935C1.975 33.8709 1.6129 33.5096 1.6129 33.0645C1.6129 32.6193 1.975 32.258 2.41935 32.258H5.64516C6.97903 32.258 8.06452 31.1725 8.06452 29.8387C8.06452 28.5048 6.97903 27.4193 5.64516 27.4193H2.41935V29.0322H5.64516C6.08952 29.0322 6.45161 29.3935 6.45161 29.8387C6.45161 30.2838 6.08952 30.6451 5.64516 30.6451H2.41935C1.08548 30.6451 0 31.7306 0 33.0645C0 34.3983 1.08548 35.4838 2.41935 35.4838Z" fill="black"/>
<path id="Vector_18" d="M5.64516 40.3226H2.41935C1.975 40.3226 1.6129 39.9613 1.6129 39.5162C1.6129 39.071 1.975 38.7097 2.41935 38.7097H6.45161V37.0968H2.41935C1.08548 37.0968 0 38.1823 0 39.5162C0 40.85 1.08548 41.9355 2.41935 41.9355H5.64516C6.08952 41.9355 6.45161 42.2968 6.45161 42.742C6.45161 43.1871 6.08952 43.5484 5.64516 43.5484H3.22581V45.1613H5.64516C6.97903 45.1613 8.06452 44.0758 8.06452 42.742C8.06452 41.4081 6.97903 40.3226 5.64516 40.3226Z" fill="black"/>
<path id="Vector_19" d="M25 19.3548C26.05 19.3548 26.9371 18.6782 27.271 17.7419H30.6452V16.129H27.271C27.0275 15.4459 26.4896 14.908 25.8065 14.6645V9.67737H24.1936V14.6645C23.2573 14.9983 22.5807 15.8854 22.5807 16.9354C22.5807 18.2693 23.6662 19.3548 25 19.3548ZM25 16.129C25.4444 16.129 25.8065 16.4903 25.8065 16.9354C25.8065 17.3806 25.4444 17.7419 25 17.7419C24.5557 17.7419 24.1936 17.3806 24.1936 16.9354C24.1936 16.4903 24.5557 16.129 25 16.129Z" fill="black"/>
</g>
</g>
</g>
</g>
</g>
</g>
<defs>
<clipPath id="clip0_0_1">
<rect width="1440" height="3680" fill="white" transform="translate(-219 -1680)"/>
</clipPath>
<clipPath id="clip1_0_1">
<rect width="50" height="50" fill="white"/>
</clipPath>
</defs>
</svg>
