<svg width="94" height="92" viewBox="0 0 94 92" fill="none" xmlns="http://www.w3.org/2000/svg">
<rect width="94" height="92" fill="#1E1E1E"/>
<g clip-path="url(#clip0_0_1)">
<rect width="1440" height="3680" transform="translate(-367 -542)" fill="white"/>
<g clip-path="url(#clip1_0_1)">
<path d="M2 10C2 5.58172 5.58172 2 10 2H49C53.4183 2 57 5.58172 57 10H2Z" fill="#61C4F2"/>
<path d="M0 77C0 81.4183 3.58172 85 8 85H25C29.4183 85 33 81.4183 33 77H0Z" fill="#61C4F2"/>
<path d="M5.66797 1.1797C3.40234 1.90236 1.625 3.44533 0.628906 5.5547L0.00390625 6.8633V43.875V80.8867L0.628906 82.1953C1.42969 83.9141 2.83594 85.3203 4.55469 86.1211L5.86328 86.7461L13.9297 86.8047C19.8672 86.8438 22.0938 86.8047 22.2891 86.6289C22.6797 86.3164 22.6406 85.2031 22.2109 84.832C21.918 84.5586 20.9219 84.5195 14.2617 84.4609C6.9375 84.4023 6.60547 84.3828 5.74609 83.9922C4.57422 83.4453 3.30469 82.1758 2.75781 81.0039L2.34766 80.1055V43.875V7.64455L2.75781 6.74611C3.30469 5.57423 4.57422 4.3047 5.74609 3.75783L6.64453 3.34767H29.2031H51.7617L52.6602 3.75783C53.832 4.3047 55.1016 5.57423 55.6289 6.74611C55.9805 7.4883 56.0586 8.1133 56.1172 10.2813C56.1562 11.7266 56.293 13.0352 56.3906 13.1524C56.6641 13.5039 58.0117 13.4649 58.3047 13.1133C58.4609 12.918 58.5195 11.9805 58.4609 9.85158C58.4023 6.96095 58.3828 6.82423 57.7773 5.5547C56.9766 3.83595 55.5703 2.4297 53.8516 1.62892L52.543 1.00392L29.4961 0.964859C11.2539 0.945328 6.29297 0.98439 5.66797 1.1797Z" fill="black"/>
<path d="M54.711 15.9453C49.7891 16.7266 43.8516 19.6562 43.5782 21.4531C43.4415 22.293 42.0938 39.6758 42.0938 40.4766C42.0938 40.9062 41.8985 41.2969 41.5079 41.7266C40.7266 42.5469 40.4532 43.6406 40.5899 45.4375C40.7266 47.332 41.1758 48.6016 42.0547 49.5C42.6407 50.1055 42.836 50.5547 43.2657 52.2734C44.5547 57.2734 46.9961 61.2773 50.4532 64.0313C55.5508 68.0938 61.8008 68.5625 67.2305 65.3398C68.7735 64.4023 71.3516 61.9219 72.543 60.1836C74.3008 57.6641 75.961 53.6406 76.3907 50.8672C76.4883 50.3203 76.6641 50.0273 77.0743 49.793C77.7969 49.3633 78.5391 47.957 78.793 46.5312C79.2032 44.2656 78.9688 42.918 77.9532 41.7656L77.3282 41.043L76.586 31.4727C76.1954 26.1992 75.8047 21.6484 75.7461 21.3555C75.5118 20.0273 71.0977 17.5273 67.1915 16.5117C64.9454 15.9258 64.6719 15.8867 60.3555 15.8281C57.8946 15.8086 55.3555 15.8476 54.711 15.9453ZM64.0469 18.5039C66.2735 18.7969 68.6758 19.5391 70.5899 20.5352C73.5196 22.0586 73.2461 21.4336 73.7149 27.6641C73.9493 30.6133 74.1641 33.3672 74.2227 33.7578L74.3204 34.5H70.9415H67.543L67.0743 33.4844C66.3907 32.0195 64.8477 30.5156 63.2461 29.7539C61.9961 29.168 61.8008 29.1289 59.6719 29.1289C57.543 29.1289 57.3477 29.168 56.0977 29.7539C54.4961 30.5156 52.9532 32.0195 52.2696 33.4844L51.8008 34.5H48.4024H45.004L45.1016 33.8555C45.1602 33.5234 45.3946 30.7695 45.629 27.7617C46.0977 21.375 45.7852 22.0391 49.0274 20.418C53.0313 18.4258 58.3047 17.7617 64.0469 18.5039ZM61.7422 31.9023C63.0704 32.3516 64.5743 33.8945 65.043 35.2617C65.5118 36.668 65.3946 38.582 64.7501 39.8516C63.7149 41.8828 61.7032 42.9961 59.3204 42.8594C55.4336 42.6445 53.0508 38.9336 54.3399 35.1641C54.7501 33.9336 56.3321 32.332 57.5235 31.9023C58.6954 31.4922 60.5508 31.4922 61.7422 31.9023ZM51.4688 37.7812C51.4688 38.2891 51.5469 38.9922 51.6446 39.3437L51.8399 39.9687H48.2071H44.5743L44.711 39.0703C44.7696 38.5625 44.8282 37.8594 44.8282 37.5078V36.8437H48.1485H51.4688V37.7812ZM74.5157 37.5078C74.5157 37.8594 74.5743 38.5625 74.6329 39.0703L74.7696 39.9687H71.1368H67.504L67.6993 39.3437C67.7969 38.9922 67.8751 38.2891 67.8751 37.7812V36.8437H71.1954H74.5157V37.5078ZM53.9102 43.2109C54.418 43.7188 55.4336 44.3828 56.1368 44.7344C57.3477 45.3008 57.5626 45.3398 59.6719 45.3398C61.7813 45.3398 61.9961 45.3008 63.2071 44.7344C63.9102 44.3828 64.9258 43.7188 65.4336 43.2109L66.3907 42.3125H70.1993C73.7344 42.3125 74.0469 42.332 74.2618 42.6836C74.379 42.8789 74.8086 43.1133 75.1797 43.1719C76.1954 43.3672 76.5469 43.9922 76.3907 45.3594C76.2149 46.8242 75.9024 47.4883 75.1016 48.0156C74.379 48.5039 74.2618 48.7773 73.5391 51.6484C72.6016 55.5156 71.0977 58.2305 68.461 60.8672C66.5274 62.8008 65.1016 63.7188 62.7969 64.5C61.1758 65.0469 58.2266 65.0078 56.4493 64.4023C53.7344 63.5039 51.1758 61.6094 49.2813 59.1289C47.504 56.7656 45.8243 52.7812 45.3165 49.6367C45.2188 49.0703 44.9649 48.6406 44.3985 48.1133C43.5391 47.293 43.0704 46.1211 43.0704 44.8125C43.0704 43.7383 43.3438 43.3281 44.1641 43.1719C44.5352 43.1133 44.9649 42.8789 45.0821 42.6836C45.2969 42.332 45.6094 42.3125 49.1446 42.3125H52.9532L53.9102 43.2109Z" fill="black"/>
<path d="M50.1406 47.2344C49.8281 47.5469 49.8281 48.7969 50.1406 49.1094C50.4727 49.4414 55.5898 49.4414 55.9219 49.1094C56.0586 48.9727 56.1562 48.5625 56.1562 48.1719C56.1562 47.7812 56.0586 47.3711 55.9219 47.2344C55.7656 47.0781 54.8281 47 53.0312 47C51.2344 47 50.2969 47.0781 50.1406 47.2344Z" fill="black"/>
<path d="M63.4219 47.2344C63.1094 47.5469 63.1094 48.7969 63.4219 49.1094C63.7539 49.4414 68.8711 49.4414 69.2031 49.1094C69.3398 48.9727 69.4375 48.5625 69.4375 48.1719C69.4375 47.7812 69.3398 47.3711 69.2031 47.2344C69.0469 47.0781 68.1094 47 66.3125 47C64.5156 47 63.5781 47.0781 63.4219 47.2344Z" fill="black"/>
<path d="M54.8281 56.6094C54.6914 56.7461 54.5938 57.1758 54.5938 57.5859C54.5938 58.25 54.6914 58.4063 55.5312 59.0117C56.7812 59.9297 58.1094 60.3398 59.7695 60.3398C62.25 60.3008 64.8086 58.9141 64.8086 57.5859C64.8086 57.2539 64.7109 56.8438 64.5547 56.6875C64.2227 56.2773 62.9141 56.2773 62.582 56.6875C61.3906 58.1328 57.9531 58.1328 56.7617 56.6875C56.4492 56.3164 55.1602 56.2773 54.8281 56.6094Z" fill="black"/>
<path d="M42.8751 64.5C41.4493 65.125 40.5508 66.4727 40.3946 68.2695C40.2579 69.7344 40.7266 73.1523 41.8204 78.6797C42.9922 84.7148 42.8165 84.1484 43.4805 84.0313C43.793 83.9531 44.3204 83.8555 44.6329 83.7969C45.3946 83.6602 45.3946 83.4453 44.6329 79.7344C43.5196 74.2461 43.0313 71.1211 42.9922 69.4219C42.9727 67.8984 43.0118 67.7031 43.4415 67.2344C43.9883 66.6484 45.1797 66.5508 46.0001 67.0195C46.6251 67.3906 47.836 67.3906 48.129 67.0391C48.2657 66.8828 48.3438 66.4141 48.3047 66.0039C48.2461 65.3203 48.168 65.2227 47.1915 64.7148C46.3321 64.3047 45.8633 64.1875 44.8477 64.1875C44.1446 64.207 43.2461 64.3438 42.8751 64.5Z" fill="black"/>
<path d="M72.1523 64.7148C71.1758 65.2227 71.0976 65.3203 71.039 66.0039C71 66.4141 71.0781 66.8828 71.2148 67.0391C71.5078 67.3906 72.7187 67.3906 73.3437 67.0195C74.164 66.5508 75.3555 66.6484 75.9023 67.2344C76.332 67.6836 76.3711 67.8984 76.3516 69.4219C76.332 70.9648 75.1015 78.4844 74.7109 79.5195C74.6133 79.7734 74.2422 80.0078 73.6367 80.1641C69.9453 81.1406 66.9375 85.4766 67.5625 88.875C67.7383 89.7539 68.5586 90.75 69.125 90.75C69.4765 90.75 69.5937 90.5742 69.789 89.7148C69.9062 89.1484 70.0234 88.3086 70.0234 87.8594C70.0234 86.1797 71.6445 83.9141 73.5586 82.918C74.789 82.2734 76.625 82.2734 77.8945 82.9375C79.9258 83.9727 82.1328 87.3125 81.4883 88.3477C81.3906 88.4844 81.4492 89.0898 81.5859 89.6758C81.8398 90.8281 82.0547 90.9453 82.9726 90.5352C84.457 89.8516 84.5547 87.2148 83.1484 84.6172C82.3476 83.1133 80.4531 81.2969 78.9883 80.5938C78.3047 80.2813 77.6211 80.0078 77.4844 80.0078C77.3281 80.0078 77.2695 79.8711 77.3281 79.6563C77.4453 79.2852 78.2656 74.8125 78.6367 72.5859C78.7734 71.7852 78.8906 70.2422 78.8906 69.168C78.9101 67.0586 78.6172 66.1602 77.6016 65.2227C76.3516 64.0508 73.9297 63.8359 72.1523 64.7148Z" fill="black"/>
<path d="M47.0156 69.1094C46.8789 69.2461 46.7812 69.6758 46.7812 70.0664C46.7812 70.7891 46.8594 70.8477 52.9141 75.6914C58.0898 79.832 59.1445 80.5938 59.6719 80.5938C60.1992 80.5938 61.2539 79.832 66.4297 75.6914C72.4844 70.8477 72.5625 70.7891 72.5625 70.0664C72.5625 69.168 72.2891 68.875 71.3906 68.875C70.7852 68.8945 70.0234 69.4414 65.2383 73.2695C62.2305 75.6914 59.7305 77.6641 59.6719 77.6641C59.6133 77.6641 57.1133 75.6914 54.1055 73.2695C49.3203 69.4414 48.5586 68.8945 47.9531 68.875C47.5625 68.875 47.1523 68.9727 47.0156 69.1094Z" fill="black"/>
<path d="M33.8125 75.1641C32.5039 76.4922 31.293 77.8008 31.1367 78.0938C30.9805 78.3672 30.3359 79.3633 29.7109 80.3008C27.6211 83.3867 25.8828 87.9766 25.8828 90.457C25.8828 91.0039 25.9805 91.5508 26.1172 91.6875C26.4297 92 27.7383 91.9805 28.0117 91.668C28.1289 91.5117 28.3633 90.6328 28.5195 89.6953C28.9102 87.5273 29.3984 86.0625 30.4727 83.9336C31.7617 81.375 33.1289 79.5586 35.7852 76.9219C37.875 74.832 38.1875 74.4219 38.1875 73.875C38.1875 73.0547 37.875 72.7813 36.9766 72.7813C36.2734 72.7813 36.0586 72.957 33.8125 75.1641Z" fill="black"/>
<path d="M81.5859 73.0156C81.4492 73.1523 81.3516 73.543 81.3516 73.875C81.3516 74.4219 81.6836 74.832 83.8516 77.0195C88.1484 81.3164 90.4531 85.4375 91.0977 90.0273C91.1953 90.7695 91.3906 91.4922 91.5273 91.6484C91.8203 92.0195 93.1484 92 93.4609 91.6289C93.8711 91.1406 93.5586 88.543 92.8555 86.3359C91.4492 81.9414 88.8906 78.0547 84.9258 74.3438C83.4609 72.9766 83.1484 72.7813 82.543 72.7813C82.1328 72.7813 81.7227 72.8789 81.5859 73.0156Z" fill="black"/>
<g clip-path="url(#clip2_0_1)">
<g filter="url(#filter0_d_0_1)">
<path d="M35.8177 43.5388L37.662 43.5472C37.6157 33.3614 29.3208 25.0665 19.1349 25.0201L19.1433 26.8644C28.3106 26.9062 35.776 34.3715 35.8177 43.5388Z" fill="black"/>
</g>
<path d="M35.8177 43.5388L37.662 43.5472C37.6157 33.3614 29.3208 25.0665 19.1349 25.0201L19.1433 26.8644C28.3106 26.9062 35.776 34.3715 35.8177 43.5388Z" fill="#FF6B00"/>
<g filter="url(#filter1_d_0_1)">
<path d="M32.3041 43.5353L33.7867 43.5349C33.7886 35.3472 27.1526 28.7113 18.9649 28.7132L18.9646 30.1957C26.3335 30.194 32.3059 36.1663 32.3041 43.5353Z" fill="black"/>
</g>
<path d="M32.3041 43.5353L33.7867 43.5349C33.7886 35.3472 27.1526 28.7113 18.9649 28.7132L18.9646 30.1957C26.3335 30.194 32.3059 36.1663 32.3041 43.5353Z" fill="#FF6B00"/>
<g filter="url(#filter2_d_0_1)">
<path d="M29.5493 43.9272L30.7239 43.925C30.7363 37.4377 25.4874 32.1888 19.0002 32.2013L18.9979 33.3759C24.8365 33.3647 29.5605 38.0887 29.5493 43.9272Z" fill="black"/>
</g>
<path d="M29.5493 43.9272L30.7239 43.925C30.7363 37.4377 25.4874 32.1888 19.0002 32.2013L18.9979 33.3759C24.8365 33.3647 29.5605 38.0887 29.5493 43.9272Z" fill="#FF6B00"/>
<g filter="url(#filter3_d_0_1)">
<path d="M21.9495 50.9074C19.9334 49.2136 17.7538 47.3179 16.3312 45.8953C14.9086 44.4728 13.0129 42.2932 11.3191 40.2771L12.1928 39.4034L13.119 38.4772C13.3706 38.2256 13.3701 37.8181 13.1185 37.5665L9.47383 33.9219C9.22285 33.6709 8.81451 33.67 8.56319 33.9213L7.22462 35.2599C7.22291 35.2616 7.22122 35.2633 7.21953 35.265C7.21951 35.265 7.2195 35.265 7.2195 35.265C5.12273 37.3618 7.84236 43.481 13.294 48.9326C18.7456 54.3842 24.8648 57.1038 26.9615 55.007C26.9615 55.007 26.9615 55.007 26.9615 55.007C26.9632 55.0053 26.965 55.0036 26.9667 55.0019L28.3052 53.6634C28.5566 53.412 28.5557 53.0037 28.3047 52.7527L24.66 49.108C24.4084 48.8564 24.0009 48.856 23.7494 49.1075L22.8231 50.0338L21.9495 50.9074Z" fill="black"/>
</g>
<path d="M21.9495 50.9074C19.9334 49.2136 17.7538 47.3179 16.3312 45.8953C14.9086 44.4728 13.0129 42.2932 11.3191 40.2771L12.1928 39.4034L13.119 38.4772C13.3706 38.2256 13.3701 37.8181 13.1185 37.5665L9.47383 33.9219C9.22285 33.6709 8.81451 33.67 8.56319 33.9213L7.22462 35.2599C7.22291 35.2616 7.22122 35.2633 7.21953 35.265C7.21951 35.265 7.2195 35.265 7.2195 35.265C5.12273 37.3618 7.84236 43.481 13.294 48.9326C18.7456 54.3842 24.8648 57.1038 26.9615 55.007C26.9615 55.007 26.9615 55.007 26.9615 55.007C26.9632 55.0053 26.965 55.0036 26.9667 55.0019L28.3052 53.6634C28.5566 53.412 28.5557 53.0037 28.3047 52.7527L24.66 49.108C24.4084 48.8564 24.0009 48.856 23.7494 49.1075L22.8231 50.0338L21.9495 50.9074Z" fill="#1BC576"/>
</g>
</g>
</g>
<defs>
<filter id="filter0_d_0_1" x="18.8127" y="25.0201" width="19.1714" height="19.1714" filterUnits="userSpaceOnUse" color-interpolation-filters="sRGB">
<feFlood flood-opacity="0" result="BackgroundImageFix"/>
<feColorMatrix in="SourceAlpha" type="matrix" values="0 0 0 0 0 0 0 0 0 0 0 0 0 0 0 0 0 0 127 0" result="hardAlpha"/>
<feOffset dy="0.322148"/>
<feGaussianBlur stdDeviation="0.161074"/>
<feColorMatrix type="matrix" values="0 0 0 0 0 0 0 0 0 0 0 0 0 0 0 0 0 0 0.5 0"/>
<feBlend mode="normal" in2="BackgroundImageFix" result="effect1_dropShadow_0_1"/>
<feBlend mode="normal" in="SourceGraphic" in2="effect1_dropShadow_0_1" result="shape"/>
</filter>
<filter id="filter1_d_0_1" x="18.6425" y="28.7132" width="15.4663" height="15.4664" filterUnits="userSpaceOnUse" color-interpolation-filters="sRGB">
<feFlood flood-opacity="0" result="BackgroundImageFix"/>
<feColorMatrix in="SourceAlpha" type="matrix" values="0 0 0 0 0 0 0 0 0 0 0 0 0 0 0 0 0 0 127 0" result="hardAlpha"/>
<feOffset dy="0.322148"/>
<feGaussianBlur stdDeviation="0.161074"/>
<feColorMatrix type="matrix" values="0 0 0 0 0 0 0 0 0 0 0 0 0 0 0 0 0 0 0.5 0"/>
<feBlend mode="normal" in2="BackgroundImageFix" result="effect1_dropShadow_0_1"/>
<feBlend mode="normal" in="SourceGraphic" in2="effect1_dropShadow_0_1" result="shape"/>
</filter>
<filter id="filter2_d_0_1" x="18.6758" y="32.2012" width="12.3702" height="12.3703" filterUnits="userSpaceOnUse" color-interpolation-filters="sRGB">
<feFlood flood-opacity="0" result="BackgroundImageFix"/>
<feColorMatrix in="SourceAlpha" type="matrix" values="0 0 0 0 0 0 0 0 0 0 0 0 0 0 0 0 0 0 127 0" result="hardAlpha"/>
<feOffset dy="0.322148"/>
<feGaussianBlur stdDeviation="0.161074"/>
<feColorMatrix type="matrix" values="0 0 0 0 0 0 0 0 0 0 0 0 0 0 0 0 0 0 0.5 0"/>
<feBlend mode="normal" in2="BackgroundImageFix" result="effect1_dropShadow_0_1"/>
<feBlend mode="normal" in="SourceGraphic" in2="effect1_dropShadow_0_1" result="shape"/>
</filter>
<filter id="filter3_d_0_1" x="6.08219" y="33.5185" width="22.8406" height="22.8407" filterUnits="userSpaceOnUse" color-interpolation-filters="sRGB">
<feFlood flood-opacity="0" result="BackgroundImageFix"/>
<feColorMatrix in="SourceAlpha" type="matrix" values="0 0 0 0 0 0 0 0 0 0 0 0 0 0 0 0 0 0 127 0" result="hardAlpha"/>
<feOffset dy="0.214765"/>
<feGaussianBlur stdDeviation="0.214765"/>
<feColorMatrix type="matrix" values="0 0 0 0 0 0 0 0 0 0 0 0 0 0 0 0 0 0 0.5 0"/>
<feBlend mode="normal" in2="BackgroundImageFix" result="effect1_dropShadow_0_1"/>
<feBlend mode="normal" in="SourceGraphic" in2="effect1_dropShadow_0_1" result="shape"/>
</filter>
<clipPath id="clip0_0_1">
<rect width="1440" height="3680" fill="white" transform="translate(-367 -542)"/>
</clipPath>
<clipPath id="clip1_0_1">
<rect width="1240" height="141" fill="white" transform="translate(-267 -3)"/>
</clipPath>
<clipPath id="clip2_0_1">
<rect width="32" height="31.3557" fill="white" transform="translate(6 25)"/>
</clipPath>
</defs>
</svg>
