<svg width="100" height="100" viewBox="0 0 100 100" fill="none" xmlns="http://www.w3.org/2000/svg">
<rect width="100" height="100" fill="#1E1E1E"/>
<g clip-path="url(#clip0_0_1)">
<rect width="1440" height="3680" transform="translate(-648 -539)" fill="white"/>
<g clip-path="url(#clip1_0_1)">
<path d="M91.3066 16.6309V28.0195L81.4453 33.7148L71.6797 28.0762V17.293L71.582 17.2363V16.6309L81.4453 10.9375L91.3066 16.6309Z" fill="#FF6B00"/>
<path d="M73.1445 28.9221V18.5951L73.0469 18.5385V17.9328L82.9102 12.2396L91.3066 17.0871V16.6309L81.4453 10.9375L71.582 16.6309V17.2363L71.6797 17.293V28.0762L73.1445 28.9221Z" fill="#E05E00"/>
<path d="M81.4453 34.209V45.5977L71.582 51.293L61.7188 45.5977V34.3184L61.8164 34.375L71.6797 28.6797V28.5723L81.4453 34.209Z" fill="#61C4F2"/>
<path d="M63.1836 35.9459L63.2812 36.0025L73.1445 30.3072V30.2L81.4453 34.991V34.209L71.6797 28.5723V28.6797L61.8164 34.375L61.7188 34.3184V45.5977L63.1836 46.4436V35.9459Z" fill="#30AEE9"/>
<path d="M71.6797 28.0762V28.5723L71.582 28.5156L61.7188 34.209V34.3184L51.9531 28.6797V17.293L61.8164 11.5977L71.582 17.2363V28.0195L71.6797 28.0762Z" fill="#1BC576"/>
<path d="M52.5391 19.1484L62.4023 13.4531L71.582 18.7535V17.2363L61.8164 11.5977L51.9531 17.293V28.6797L52.5391 29.018V19.1484Z" fill="#00AC5C"/>
<path d="M46.875 7.03125V14.8438H42.9688H25.3906H21.4844V7.03125H46.875Z" fill="#57606F"/>
<path d="M23.1201 8.76465H46.875V7.03125H21.4844V14.8438H23.1201V8.76465Z" fill="#414A56"/>
<path d="M42.9688 39.6602C53.8594 43.2637 61.7188 53.5254 61.7188 65.625C61.7188 80.7266 49.4766 92.9688 34.375 92.9688C19.2734 92.9688 7.03125 80.7266 7.03125 65.625C7.03125 53.6699 14.7031 43.5098 25.3906 39.793V14.8438H42.9688V39.6602Z" fill="#E8F9F9"/>
<path d="M8.98438 67.6432C8.98438 55.6881 16.6562 45.5279 27.3438 41.8111V16.8619H42.9688V14.8438H25.3906V39.793C14.7031 43.5098 7.03125 53.6699 7.03125 65.625C7.03125 73.5158 10.3752 80.6248 15.7215 85.6158C11.5264 80.8098 8.98438 74.5236 8.98438 67.6432Z" fill="#CCE5E4"/>
<path d="M44.9219 41.6783C48.7064 42.9307 52.1246 44.9877 54.9746 47.6459C52.2424 44.5186 48.8104 42.0187 44.9219 40.3914V41.6783Z" fill="#CCE5E4"/>
<path d="M46.0938 57.8125H42.1875V61.7188H46.0938V57.8125Z" fill="black"/>
<path d="M40.2344 57.8125H36.3281V61.7188H40.2344V57.8125Z" fill="black"/>
<path d="M34.375 57.8125H30.4688V61.7188H34.375V57.8125Z" fill="black"/>
<path d="M28.5156 57.8125H24.6094V61.7188H28.5156V57.8125Z" fill="black"/>
<path d="M34.375 93.9453C18.7592 93.9453 6.05469 81.2408 6.05469 65.625C6.05469 53.8109 13.4035 43.2424 24.4141 39.1078V14.8438C24.4141 14.3045 24.8514 13.8672 25.3906 13.8672C25.9299 13.8672 26.3672 14.3045 26.3672 14.8438V39.793C26.3672 40.2086 26.1041 40.5787 25.7115 40.7154C15.1223 44.3979 8.00781 54.4082 8.00781 65.625C8.00781 80.1639 19.8361 91.9922 34.375 91.9922C48.9139 91.9922 60.7422 80.1639 60.7422 65.625C60.7422 54.2275 53.4764 44.1654 42.6619 40.5873C42.2621 40.4549 41.9922 40.0812 41.9922 39.6602V14.8438C41.9922 14.3045 42.4295 13.8672 42.9688 13.8672C43.508 13.8672 43.9453 14.3045 43.9453 14.8438V38.9639C55.19 42.9951 62.6953 53.6203 62.6953 65.625C62.6953 81.2408 49.9908 93.9453 34.375 93.9453Z" fill="black"/>
<path d="M46.875 15.8203H21.4844C20.9451 15.8203 20.5078 15.383 20.5078 14.8438V7.03125C20.5078 6.49199 20.9451 6.05469 21.4844 6.05469H46.875C47.4143 6.05469 47.8516 6.49199 47.8516 7.03125V14.8438C47.8516 15.383 47.4143 15.8203 46.875 15.8203ZM22.4609 13.8672H45.8984V8.00781H22.4609V13.8672Z" fill="black"/>
<path d="M34.1797 88.0859C22.3332 88.0859 12.6953 78.448 12.6953 66.6016C12.6953 62.2232 14.0041 58.0109 16.4801 54.4195C18.8982 50.9123 22.2592 48.225 26.1996 46.648C26.7006 46.4477 27.2687 46.691 27.4691 47.1918C27.6695 47.6926 27.426 48.2609 26.9254 48.4613C19.4674 51.4459 14.6484 58.5664 14.6484 66.6016C14.6484 77.3713 23.4102 86.1328 34.1797 86.1328C44.6094 86.1328 53.1561 77.915 53.685 67.6147L27.3785 68.5543C26.8437 68.5693 26.3869 68.1523 26.3678 67.6133C26.3484 67.0742 26.7699 66.6217 27.3088 66.6023L54.6525 65.6258C54.915 65.6162 55.1748 65.7148 55.3654 65.899C55.5562 66.0828 55.6639 66.3365 55.6639 66.6018C55.6641 78.4481 46.0262 88.0859 34.1797 88.0859Z" fill="black"/>
<path d="M87.1094 93.9453H7.03125C6.49199 93.9453 6.05469 93.5082 6.05469 92.9688C6.05469 92.4293 6.49199 91.9922 7.03125 91.9922H87.1094C87.6488 91.9922 88.0859 92.4293 88.0859 92.9688C88.0859 93.5082 87.6488 93.9453 87.1094 93.9453Z" fill="black"/>
<path d="M61.8164 35.3516C61.6473 35.3516 61.4779 35.3076 61.3264 35.2197L61.2287 35.1631L51.4648 29.5254C51.1627 29.351 50.9766 29.0285 50.9766 28.6797V17.293C50.9766 16.9441 51.1627 16.6217 51.4648 16.4473L61.3281 10.752C61.6303 10.5773 62.0025 10.5773 62.3047 10.752L72.1697 16.4484C72.4709 16.623 72.6562 16.9449 72.6562 17.2932V28.6799C72.6562 29.0287 72.4701 29.3512 72.168 29.5256L62.3047 35.2207C62.1537 35.308 61.985 35.3516 61.8164 35.3516ZM52.9297 28.1158L61.8166 33.2471L70.7031 28.1158V17.8564L61.8164 12.7252L52.9297 17.8568V28.1158Z" fill="black"/>
<path d="M71.582 52.2695C71.4135 52.2695 71.2447 52.2258 71.0938 52.1387L61.2305 46.4434C60.9283 46.2689 60.7422 45.9465 60.7422 45.5977V34.209C60.7422 33.86 60.9283 33.5375 61.2305 33.3631L71.0938 27.6697C71.3963 27.4951 71.7695 27.4953 72.0721 27.6707L72.1697 27.7273L81.9334 33.3629C82.2357 33.5373 82.4219 33.8598 82.4219 34.2088V45.5975C82.4219 45.9463 82.2357 46.2687 81.9336 46.4432L72.0703 52.1387C71.9193 52.2258 71.7506 52.2695 71.582 52.2695ZM62.6953 45.0338L71.582 50.1652L80.4688 45.0338V34.7729L71.5818 29.6434L62.6953 34.7729V45.0338Z" fill="black"/>
<path d="M81.4453 34.6914C81.2768 34.6914 81.108 34.6479 80.957 34.5605L71.092 28.8641C70.7908 28.6895 70.6055 28.3676 70.6055 28.0193V16.6309C70.6055 16.2818 70.7916 15.9594 71.0938 15.785L80.957 10.0916C81.2592 9.91719 81.6314 9.91719 81.9336 10.0916L91.7949 15.785C92.0971 15.9594 92.2832 16.2818 92.2832 16.6307V28.0193C92.2832 28.3682 92.0971 28.6906 91.7951 28.865L81.9338 34.5604C81.7828 34.6477 81.6139 34.6914 81.4453 34.6914ZM72.5586 27.4561L81.4453 32.5871L90.3301 27.4559V17.1947L81.4453 12.065L72.5586 17.1947V27.4561Z" fill="black"/>
<path d="M92.9688 64.6484H69.5312C68.9918 64.6484 68.5547 64.2113 68.5547 63.6719C68.5547 63.1324 68.9918 62.6953 69.5312 62.6953H92.9688C93.5082 62.6953 93.9453 63.1324 93.9453 63.6719C93.9453 64.2113 93.5082 64.6484 92.9688 64.6484Z" fill="black"/>
<path d="M92.9688 70.5078H69.5312C68.9918 70.5078 68.5547 70.0707 68.5547 69.5312C68.5547 68.9918 68.9918 68.5547 69.5312 68.5547H92.9688C93.5082 68.5547 93.9453 68.9918 93.9453 69.5312C93.9453 70.0707 93.5082 70.5078 92.9688 70.5078Z" fill="black"/>
<path d="M92.9688 76.3672H69.5312C68.9918 76.3672 68.5547 75.9301 68.5547 75.3906C68.5547 74.8512 68.9918 74.4141 69.5312 74.4141H92.9688C93.5082 74.4141 93.9453 74.8512 93.9453 75.3906C93.9453 75.9301 93.5082 76.3672 92.9688 76.3672Z" fill="black"/>
<path d="M92.9688 82.2266H85.1562C84.6168 82.2266 84.1797 81.7895 84.1797 81.25C84.1797 80.7105 84.6168 80.2734 85.1562 80.2734H92.9688C93.5082 80.2734 93.9453 80.7105 93.9453 81.25C93.9453 81.7895 93.5082 82.2266 92.9688 82.2266Z" fill="black"/>
</g>
</g>
<defs>
<clipPath id="clip0_0_1">
<rect width="1440" height="3680" fill="white" transform="translate(-648 -539)"/>
</clipPath>
<clipPath id="clip1_0_1">
<rect width="1240" height="141" fill="white" transform="translate(-548)"/>
</clipPath>
</defs>
</svg>
