<svg width="50" height="50" viewBox="0 0 50 50" fill="none" xmlns="http://www.w3.org/2000/svg">
<g id="iconfinder-508-chemistry-lab-chemistry-lab-education-4212906_114963 1">
<g id="_x35_08_x2C__chemistry_x2C__lab__x2C__chemistry_lab__x2C__education">
<g id="Group">
<path id="Vector" d="M45.6533 8.31543V14.0098L40.7227 16.8574L35.8398 14.0381V8.64648L35.791 8.61816V8.31543L40.7227 5.46875L45.6533 8.31543Z" fill="#FF6B00"/>
<path id="Vector_2" d="M36.5723 14.461V9.29756L36.5234 9.26924V8.96641L41.4551 6.11982L45.6533 8.54355V8.31543L40.7227 5.46875L35.791 8.31543V8.61816L35.8398 8.64648V14.0381L36.5723 14.461Z" fill="#E05E00"/>
<path id="Vector_3" d="M40.7227 17.1045V22.7988L35.791 25.6465L30.8594 22.7988V17.1592L30.9082 17.1875L35.8398 14.3398V14.2861L40.7227 17.1045Z" fill="#61C4F2"/>
<path id="Vector_4" d="M31.5918 17.9729L31.6406 18.0013L36.5723 15.1536V15.1L40.7227 17.4955V17.1045L35.8398 14.2861V14.3398L30.9082 17.1875L30.8594 17.1592V22.7988L31.5918 23.2218V17.9729Z" fill="#30AEE9"/>
<path id="Vector_5" d="M35.8398 14.0381V14.2861L35.791 14.2578L30.8594 17.1045V17.1592L25.9766 14.3398V8.64648L30.9082 5.79883L35.791 8.61816V14.0098L35.8398 14.0381Z" fill="#1BC576"/>
<path id="Vector_6" d="M26.2695 9.57422L31.2012 6.72656L35.791 9.37676V8.61816L30.9082 5.79883L25.9766 8.64648V14.3398L26.2695 14.509V9.57422Z" fill="#00AC5C"/>
<path id="Vector_7" d="M23.4375 3.51562V7.42188H21.4844H12.6953H10.7422V3.51562H23.4375Z" fill="#57606F"/>
<path id="Vector_8" d="M11.5601 4.38232H23.4375V3.51562H10.7422V7.42188H11.5601V4.38232Z" fill="#414A56"/>
<path id="Vector_9" d="M21.4844 19.8301C26.9297 21.6318 30.8594 26.7627 30.8594 32.8125C30.8594 40.3633 24.7383 46.4844 17.1875 46.4844C9.63672 46.4844 3.51562 40.3633 3.51562 32.8125C3.51562 26.835 7.35156 21.7549 12.6953 19.8965V7.42188H21.4844V19.8301Z" fill="#E8F9F9"/>
<g id="Group_2">
<g id="Group_3">
<g id="Group_4">
<path id="Vector_10" d="M4.49219 33.8216C4.49219 27.844 8.32812 22.764 13.6719 20.9056V8.43096H21.4844V7.42188H12.6953V19.8965C7.35156 21.7549 3.51562 26.835 3.51562 32.8125C3.51562 36.7579 5.1876 40.3124 7.86074 42.8079C5.76318 40.4049 4.49219 37.2618 4.49219 33.8216Z" fill="#CCE5E4"/>
</g>
<g id="Group_5">
<path id="Vector_11" d="M22.4609 20.8391C24.3532 21.4653 26.0623 22.4938 27.4873 23.8229C26.1212 22.2593 24.4052 21.0094 22.4609 20.1957V20.8391Z" fill="#CCE5E4"/>
</g>
</g>
</g>
<path id="Vector_12" d="M23.0469 28.9062H21.0938V30.8594H23.0469V28.9062Z" fill="black"/>
<path id="Vector_13" d="M20.1172 28.9062H18.1641V30.8594H20.1172V28.9062Z" fill="black"/>
<path id="Vector_14" d="M17.1875 28.9062H15.2344V30.8594H17.1875V28.9062Z" fill="black"/>
<path id="Vector_15" d="M14.2578 28.9062H12.3047V30.8594H14.2578V28.9062Z" fill="black"/>
<path id="Vector_16" d="M17.1875 46.9727C9.37959 46.9727 3.02734 40.6204 3.02734 32.8125C3.02734 26.9055 6.70176 21.6212 12.207 19.5539V7.42188C12.207 7.15225 12.4257 6.93359 12.6953 6.93359C12.9649 6.93359 13.1836 7.15225 13.1836 7.42188V19.8965C13.1836 20.1043 13.0521 20.2894 12.8558 20.3577C7.56113 22.1989 4.00391 27.2041 4.00391 32.8125C4.00391 40.0819 9.91807 45.9961 17.1875 45.9961C24.4569 45.9961 30.3711 40.0819 30.3711 32.8125C30.3711 27.1138 26.7382 22.0827 21.331 20.2937C21.1311 20.2274 20.9961 20.0406 20.9961 19.8301V7.42188C20.9961 7.15225 21.2147 6.93359 21.4844 6.93359C21.754 6.93359 21.9727 7.15225 21.9727 7.42188V19.4819C27.595 21.4976 31.3477 26.8102 31.3477 32.8125C31.3477 40.6204 24.9954 46.9727 17.1875 46.9727Z" fill="black"/>
<path id="Vector_17" d="M23.4375 7.91016H10.7422C10.4726 7.91016 10.2539 7.6915 10.2539 7.42188V3.51562C10.2539 3.246 10.4726 3.02734 10.7422 3.02734H23.4375C23.7071 3.02734 23.9258 3.246 23.9258 3.51562V7.42188C23.9258 7.6915 23.7071 7.91016 23.4375 7.91016ZM11.2305 6.93359H22.9492V4.00391H11.2305V6.93359Z" fill="black"/>
<path id="Vector_18" d="M17.0898 44.043C11.1666 44.043 6.34766 39.224 6.34766 33.3008C6.34766 31.1116 7.00205 29.0055 8.24004 27.2098C9.44912 25.4562 11.1296 24.1125 13.0998 23.324C13.3503 23.2238 13.6344 23.3455 13.7346 23.5959C13.8348 23.8463 13.713 24.1305 13.4627 24.2307C9.73369 25.723 7.32422 29.2832 7.32422 33.3008C7.32422 38.6857 11.7051 43.0664 17.0898 43.0664C22.3047 43.0664 26.578 38.9575 26.8425 33.8073L13.6893 34.2772C13.4219 34.2847 13.1935 34.0762 13.1839 33.8066C13.1742 33.5371 13.385 33.3108 13.6544 33.3012L27.3263 32.8129C27.4575 32.8081 27.5874 32.8574 27.6827 32.9495C27.7781 33.0414 27.8319 33.1683 27.8319 33.3009C27.832 39.224 23.0131 44.043 17.0898 44.043Z" fill="black"/>
<path id="Vector_19" d="M43.5547 46.9727H3.51562C3.246 46.9727 3.02734 46.7541 3.02734 46.4844C3.02734 46.2146 3.246 45.9961 3.51562 45.9961H43.5547C43.8244 45.9961 44.043 46.2146 44.043 46.4844C44.043 46.7541 43.8244 46.9727 43.5547 46.9727Z" fill="black"/>
<path id="Vector_20" d="M30.9082 17.6758C30.8236 17.6758 30.739 17.6538 30.6632 17.6099L30.6144 17.5815L25.7324 14.7627C25.5813 14.6755 25.4883 14.5142 25.4883 14.3398V8.64647C25.4883 8.47206 25.5813 8.31083 25.7324 8.22362L30.6641 5.37596C30.8151 5.28866 31.0013 5.28866 31.1523 5.37596L36.0849 8.22421C36.2354 8.31151 36.3281 8.47245 36.3281 8.64657V14.3399C36.3281 14.5143 36.2351 14.6756 36.084 14.7628L31.1523 17.6103C31.0769 17.654 30.9925 17.6758 30.9082 17.6758ZM26.4648 14.0579L30.9083 16.6235L35.3516 14.0579V8.92821L30.9082 6.36259L26.4648 8.92841V14.0579Z" fill="black"/>
<path id="Vector_21" d="M35.791 26.1348C35.7067 26.1348 35.6224 26.1129 35.5469 26.0693L30.6152 23.2217C30.4642 23.1345 30.3711 22.9732 30.3711 22.7988V17.1045C30.3711 16.93 30.4642 16.7687 30.6152 16.6815L35.5469 13.8349C35.6981 13.7475 35.8848 13.7476 36.036 13.8353L36.0849 13.8637L40.9667 16.6814C41.1179 16.7686 41.2109 16.9299 41.2109 17.1044V22.7987C41.2109 22.9731 41.1179 23.1344 40.9668 23.2216L36.0352 26.0693C35.9597 26.1129 35.8753 26.1348 35.791 26.1348ZM31.3477 22.5169L35.791 25.0826L40.2344 22.5169V17.3864L35.7909 14.8217L31.3477 17.3864V22.5169Z" fill="black"/>
<path id="Vector_22" d="M40.7227 17.3457C40.6384 17.3457 40.554 17.3239 40.4785 17.2803L35.546 14.432C35.3954 14.3447 35.3027 14.1838 35.3027 14.0097V8.31544C35.3027 8.14093 35.3958 7.9797 35.5469 7.89249L40.4785 5.04581C40.6296 4.95861 40.8157 4.95861 40.9668 5.04581L45.8975 7.89249C46.0485 7.9797 46.1416 8.14093 46.1416 8.31534V14.0097C46.1416 14.1841 46.0485 14.3453 45.8976 14.4325L40.9669 17.2802C40.8914 17.3238 40.8069 17.3457 40.7227 17.3457ZM36.2793 13.728L40.7227 16.2936L45.165 13.7279V8.59738L40.7227 6.03253L36.2793 8.59738V13.728Z" fill="black"/>
<path id="Vector_23" d="M46.4844 32.3242H34.7656C34.4959 32.3242 34.2773 32.1057 34.2773 31.8359C34.2773 31.5662 34.4959 31.3477 34.7656 31.3477H46.4844C46.7541 31.3477 46.9727 31.5662 46.9727 31.8359C46.9727 32.1057 46.7541 32.3242 46.4844 32.3242Z" fill="black"/>
<path id="Vector_24" d="M46.4844 35.2539H34.7656C34.4959 35.2539 34.2773 35.0354 34.2773 34.7656C34.2773 34.4959 34.4959 34.2773 34.7656 34.2773H46.4844C46.7541 34.2773 46.9727 34.4959 46.9727 34.7656C46.9727 35.0354 46.7541 35.2539 46.4844 35.2539Z" fill="black"/>
<path id="Vector_25" d="M46.4844 38.1836H34.7656C34.4959 38.1836 34.2773 37.965 34.2773 37.6953C34.2773 37.4256 34.4959 37.207 34.7656 37.207H46.4844C46.7541 37.207 46.9727 37.4256 46.9727 37.6953C46.9727 37.965 46.7541 38.1836 46.4844 38.1836Z" fill="black"/>
<path id="Vector_26" d="M46.4844 41.1133H42.5781C42.3084 41.1133 42.0898 40.8947 42.0898 40.625C42.0898 40.3553 42.3084 40.1367 42.5781 40.1367H46.4844C46.7541 40.1367 46.9727 40.3553 46.9727 40.625C46.9727 40.8947 46.7541 41.1133 46.4844 41.1133Z" fill="black"/>
</g>
</g>
</g>
</svg>
