<svg width="50" height="50" viewBox="0 0 50 50" fill="none" xmlns="http://www.w3.org/2000/svg">
<g id="medicine_pills_drugs_icon_149284 1">
<path id="Vector" d="M13.5417 48.4375C20.1576 48.4375 25.5208 43.0743 25.5208 36.4584C25.5208 29.8424 20.1576 24.4792 13.5417 24.4792C6.92576 24.4792 1.5625 29.8424 1.5625 36.4584C1.5625 43.0743 6.92576 48.4375 13.5417 48.4375Z" stroke="#281A3B" stroke-linecap="round" stroke-linejoin="round"/>
<path id="Vector_2" d="M13.5417 48.4375C20.1576 48.4375 25.5208 43.0743 25.5208 36.4584C25.5208 29.8424 20.1576 24.4792 13.5417 24.4792C6.92576 24.4792 1.5625 29.8424 1.5625 36.4584C1.5625 43.0743 6.92576 48.4375 13.5417 48.4375Z" fill="#FF6B00"/>
<path id="Vector_3" d="M13.5416 24.4792C12.7548 24.4788 11.9698 24.5555 11.1979 24.7084C13.9143 25.2506 16.3589 26.7175 18.1155 28.8594C19.872 31.0013 20.832 33.6857 20.832 36.4558C20.832 39.2258 19.872 41.9102 18.1155 44.0521C16.3589 46.194 13.9143 47.6609 11.1979 48.2032C12.8388 48.5326 14.5305 48.5145 16.164 48.1502C17.7975 47.7858 19.3365 47.0831 20.6818 46.0875C22.0271 45.0919 23.1489 43.8255 23.9748 42.3698C24.8007 40.9142 25.3125 39.3016 25.477 37.6361C25.6415 35.9705 25.4553 34.289 24.9301 32.6999C24.405 31.1107 23.5528 29.6493 22.4283 28.4097C21.3038 27.1701 19.932 26.1799 18.4014 25.5029C16.8708 24.8259 15.2153 24.4772 13.5416 24.4792Z" fill="#E05E00"/>
<path id="Vector_4" d="M13.5417 48.4375C20.1576 48.4375 25.5208 43.0743 25.5208 36.4584C25.5208 29.8424 20.1576 24.4792 13.5417 24.4792C6.92576 24.4792 1.5625 29.8424 1.5625 36.4584C1.5625 43.0743 6.92576 48.4375 13.5417 48.4375Z" stroke="#281A3B" stroke-linecap="round" stroke-linejoin="round"/>
<path id="Vector_5" d="M25.5208 36.4583H1.5625" stroke="#281A3B" stroke-linecap="round" stroke-linejoin="round"/>
<path id="Vector_6" d="M48.4375 10.9375V25H28.6459V10.9375C28.6459 8.31298 29.6885 5.79594 31.5443 3.94011C33.4001 2.08428 35.9172 1.04169 38.5417 1.04169C41.1662 1.04169 43.6833 2.08428 45.5391 3.94011C47.3949 5.79594 48.4375 8.31298 48.4375 10.9375Z" fill="#61C4F2"/>
<path id="Vector_7" d="M38.5417 1.04169C37.8413 1.0424 37.1429 1.11748 36.4584 1.26565C38.67 1.74192 40.6516 2.9616 42.0732 4.72149C43.4947 6.48138 44.2704 8.67521 44.2709 10.9375V25H48.4375V10.9375C48.4375 8.31298 47.3949 5.79594 45.5391 3.94011C43.6833 2.08428 41.1662 1.04169 38.5417 1.04169Z" fill="#75C9C9"/>
<path id="Vector_8" d="M48.4375 10.9375V25H28.6459V10.9375C28.6459 8.31298 29.6885 5.79594 31.5443 3.94011C33.4001 2.08428 35.9172 1.04169 38.5417 1.04169C41.1662 1.04169 43.6833 2.08428 45.5391 3.94011C47.3949 5.79594 48.4375 8.31298 48.4375 10.9375Z" stroke="#281A3B" stroke-linecap="round" stroke-linejoin="round"/>
<path id="Vector_9" d="M48.4375 25H28.6459" stroke="#281A3B" stroke-linecap="round" stroke-linejoin="round"/>
<path id="Vector_10" d="M48.4375 25V39.0625C48.4375 41.687 47.3949 44.2041 45.5391 46.0599C43.6833 47.9157 41.1662 48.9583 38.5417 48.9583C35.9172 48.9583 33.4001 47.9157 31.5443 46.0599C29.6885 44.2041 28.6459 41.687 28.6459 39.0625V25H48.4375Z" fill="#EAEAEA"/>
<path id="Vector_11" d="M44.2709 25V39.0625C44.2704 41.3248 43.4947 43.5186 42.0732 45.2785C40.6516 47.0384 38.67 48.2581 36.4584 48.7344C37.9015 49.0452 39.3959 49.0291 40.832 48.6875C42.2681 48.3458 43.6096 47.6872 44.7582 46.7598C45.9068 45.8325 46.8334 44.6599 47.47 43.328C48.1066 41.9962 48.4372 40.5387 48.4375 39.0625V25H44.2709Z" fill="#BACECE"/>
<path id="Vector_12" d="M48.4375 25V39.0625C48.4375 41.687 47.3949 44.2041 45.5391 46.0599C43.6833 47.9157 41.1662 48.9583 38.5417 48.9583C35.9172 48.9583 33.4001 47.9157 31.5443 46.0599C29.6885 44.2041 28.6459 41.687 28.6459 39.0625V25H48.4375Z" stroke="#281A3B" stroke-linecap="round" stroke-linejoin="round"/>
<path id="Vector_13" d="M48.4375 25H28.6459" stroke="#281A3B" stroke-linecap="round" stroke-linejoin="round"/>
</g>
</svg>
