<svg width="100" height="100" viewBox="0 0 100 100" fill="none" xmlns="http://www.w3.org/2000/svg">
<rect width="100" height="100" fill="#1E1E1E"/>
<g clip-path="url(#clip0_0_1)">
<rect width="1440" height="3680" transform="translate(-100 -539)" fill="white"/>
<g clip-path="url(#clip1_0_1)">
<path d="M27.0833 96.875C40.3152 96.875 51.0417 86.1485 51.0417 72.9167C51.0417 59.6848 40.3152 48.9583 27.0833 48.9583C13.8515 48.9583 3.125 59.6848 3.125 72.9167C3.125 86.1485 13.8515 96.875 27.0833 96.875Z" stroke="#281A3B" stroke-width="4.16667" stroke-linecap="round" stroke-linejoin="round"/>
<path d="M27.0833 96.875C40.3152 96.875 51.0417 86.1485 51.0417 72.9167C51.0417 59.6848 40.3152 48.9583 27.0833 48.9583C13.8515 48.9583 3.125 59.6848 3.125 72.9167C3.125 86.1485 13.8515 96.875 27.0833 96.875Z" fill="#FF6B00"/>
<path d="M27.0834 48.9583C25.5096 48.9575 23.9396 49.111 22.3959 49.4167C27.8288 50.5012 32.7179 53.435 36.231 57.7188C39.7442 62.0025 41.6642 67.3714 41.6642 72.9115C41.6642 78.4515 39.7442 83.8204 36.231 88.1042C32.7179 92.3879 27.8288 95.3217 22.3959 96.4063C25.6777 97.0651 29.0611 97.029 32.3281 96.3002C35.5951 95.5715 38.6731 94.1662 41.3638 92.175C44.0544 90.1838 46.2979 87.651 47.9498 84.7396C49.6016 81.8283 50.625 78.6032 50.9541 75.2721C51.2832 71.941 50.9106 68.5779 49.8604 65.3997C48.8102 62.2214 47.1056 59.2985 44.8566 56.8193C42.6076 54.3401 39.8641 52.3597 36.8029 51.0058C33.7416 49.6518 30.4307 48.9544 27.0834 48.9583Z" fill="#E05E00"/>
<path d="M27.0833 96.875C40.3152 96.875 51.0417 86.1485 51.0417 72.9167C51.0417 59.6848 40.3152 48.9583 27.0833 48.9583C13.8515 48.9583 3.125 59.6848 3.125 72.9167C3.125 86.1485 13.8515 96.875 27.0833 96.875Z" stroke="#281A3B" stroke-linecap="round" stroke-linejoin="round"/>
<path d="M51.0417 72.9167H3.125" stroke="#281A3B" stroke-width="2" stroke-linecap="round" stroke-linejoin="round"/>
<path d="M96.875 21.875V50H57.2916V21.875C57.2916 16.6259 59.3768 11.5918 63.0885 7.88018C66.8001 4.16852 71.8342 2.08334 77.0833 2.08334C82.3324 2.08334 87.3665 4.16852 91.0781 7.88018C94.7898 11.5918 96.875 16.6259 96.875 21.875Z" fill="#61C4F2"/>
<path d="M77.0833 2.08334C75.6825 2.08477 74.2857 2.23491 72.9166 2.53125C77.3398 3.4838 81.3031 5.92316 84.1462 9.44294C86.9894 12.9627 88.5406 17.3504 88.5416 21.875V50H96.875V21.875C96.875 16.6259 94.7898 11.5918 91.0781 7.88018C87.3665 4.16852 82.3324 2.08334 77.0833 2.08334Z" fill="#75C9C9"/>
<path d="M96.875 21.875V50H57.2916V21.875C57.2916 16.6259 59.3768 11.5918 63.0885 7.88018C66.8001 4.16852 71.8342 2.08334 77.0833 2.08334C82.3324 2.08334 87.3665 4.16852 91.0781 7.88018C94.7898 11.5918 96.875 16.6259 96.875 21.875Z" stroke="#281A3B" stroke-width="4.16667" stroke-linecap="round" stroke-linejoin="round"/>
<path d="M96.875 50H57.2916" stroke="#281A3B" stroke-width="4.16667" stroke-linecap="round" stroke-linejoin="round"/>
<path d="M96.875 50V78.125C96.875 83.3741 94.7898 88.4082 91.0781 92.1198C87.3665 95.8315 82.3324 97.9167 77.0833 97.9167C71.8342 97.9167 66.8001 95.8315 63.0885 92.1198C59.3768 88.4082 57.2916 83.3741 57.2916 78.125V50H96.875Z" fill="#EAEAEA"/>
<path d="M88.5416 50V78.125C88.5406 82.6496 86.9894 87.0373 84.1462 90.5571C81.3031 94.0768 77.3398 96.5162 72.9166 97.4687C75.8029 98.0903 78.7916 98.0583 81.6639 97.3749C84.5362 96.6916 87.2192 95.3744 89.5163 93.5197C91.8135 91.665 93.6666 89.3198 94.9399 86.6561C96.2131 83.9923 96.8743 81.0774 96.875 78.125V50H88.5416Z" fill="#BACECE"/>
<path d="M96.875 50V78.125C96.875 83.3741 94.7898 88.4082 91.0781 92.1198C87.3665 95.8315 82.3324 97.9167 77.0833 97.9167C71.8342 97.9167 66.8001 95.8315 63.0885 92.1198C59.3768 88.4082 57.2916 83.3741 57.2916 78.125V50H96.875Z" stroke="#281A3B" stroke-width="4.16667" stroke-linecap="round" stroke-linejoin="round"/>
<path d="M96.875 50H57.2916" stroke="#281A3B" stroke-linecap="round" stroke-linejoin="round"/>
<path d="M96.875 21.875C96.875 10.9444 88.0139 2.08334 77.0833 2.08334C66.1527 2.08334 57.2916 10.9444 57.2916 21.875V78.125C57.2916 89.0556 66.1527 97.9167 77.0833 97.9167C88.0139 97.9167 96.875 89.0556 96.875 78.125V21.875Z" stroke="#281A3B" stroke-linecap="round" stroke-linejoin="round"/>
</g>
</g>
<defs>
<clipPath id="clip0_0_1">
<rect width="1440" height="3680" fill="white" transform="translate(-100 -539)"/>
</clipPath>
<clipPath id="clip1_0_1">
<rect width="1240" height="141" fill="white"/>
</clipPath>
</defs>
</svg>
